<svg width="127" height="128" viewBox="0 0 127 128" fill="none" xmlns="http://www.w3.org/2000/svg">
<g clip-path="url(#clip0_279_25)">
<path d="M27.3841 86.9981C23.2369 82.893 22.7102 77.3929 24.276 71.8927C25.2807 68.3444 26.5541 64.8767 28.0852 61.5199C29.6064 58.2315 32.8921 55.5891 34.3584 52.416C34.3349 51.3431 34.1161 50.2842 33.7129 49.2908C32.2109 46.964 31.8513 44.3338 30.2689 42.0273C23.3795 36.8278 16.694 31.3147 9.67452 26.3368C11.1396 28.6421 11.9215 31.6888 12.5543 33.9554C13.1481 36.0864 13.7758 38.2671 14.3731 40.466C20.6579 44.8176 21.1745 57.1293 17.8796 63.2998C17.8152 63.3924 17.7171 63.4562 17.6064 63.4775C17.4957 63.4988 17.3813 63.4759 17.2876 63.4138C14.821 61.9668 13.0956 58.9911 12.4375 56.2559C11.5639 52.6271 13.476 49.4781 13.8303 45.8821C13.8365 45.8257 13.8625 45.7733 13.9036 45.7341C13.9447 45.6949 13.9981 45.6714 14.0548 45.6678C14.1114 45.6642 14.1674 45.6807 14.2129 45.7144C14.2584 45.7481 14.2904 45.7969 14.3033 45.8521C15.0466 49.4 12.137 52.4898 13.2763 56.0959C13.8646 57.9418 14.7221 59.9681 16.1008 61.3716C17.7751 63.0757 17.996 61.3195 18.3435 59.7114C19.5915 53.8835 19.1081 45.645 14.5696 41.2012C15.76 45.7055 16.7454 50.299 16.8162 54.8242C16.8227 54.9992 16.571 55.0233 16.5223 54.844C15.5576 50.0213 14.5806 45.2472 13.4582 40.4688C13.1456 43.4323 11.7164 46.3886 9.92359 48.6426C7.63326 51.5644 4.3083 51.2714 1.13002 50.2285C1.04155 50.194 0.969307 50.1276 0.927578 50.0423C0.88585 49.9571 0.877663 49.8592 0.904556 49.7679C2.99861 44.624 7.8367 41.3005 11.2834 37.0986C11.3264 37.0355 11.3926 36.992 11.4676 36.9776C11.5425 36.9633 11.6199 36.9793 11.6829 37.022C11.7458 37.0648 11.7892 37.1307 11.8033 37.2055C11.8174 37.2803 11.8013 37.3578 11.7583 37.4209C10.2204 39.8218 8.09121 41.6537 6.089 43.6658C4.79125 44.9706 3.3875 46.3358 2.51016 48.0072C1.32661 50.2877 3.08296 50.3033 4.66255 50.3079C10.0451 50.359 13.2061 43.1965 12.8794 38.0938L12.7265 37.4521L12.6392 37.0982C12.3066 38.6565 11.7076 40.1465 10.8687 41.503C9.76708 43.4789 7.88965 47.3785 5.54294 48.2028C5.50599 48.2183 5.46507 48.2214 5.42627 48.2118C5.38747 48.2021 5.35285 48.18 5.32768 48.149C5.3025 48.118 5.28806 48.0797 5.28655 48.0397C5.28504 47.9997 5.2965 47.9603 5.31925 47.9273C6.52682 46.1615 8.14206 44.7148 9.28349 42.8676C10.5458 40.8192 12.8419 37.4035 12.0066 34.8636C11.9941 34.8254 11.9923 34.7844 12.0014 34.7452C12.0106 34.706 12.0304 34.67 12.0585 34.6412C11.2248 31.2761 10.0829 27.3567 7.79433 25.0314C2.93145 21.6189 -2.21726 18.6311 -7.59491 16.1011C-8.19231 15.8267 -7.87949 14.8519 -7.26338 15.1175C0.782614 18.6634 7.99488 23.5684 14.963 28.8649C18.8189 30.5354 23.112 31.4002 27.3366 32.1727C29.9266 31.8883 32.4722 31.2828 34.9146 30.3702C34.9146 30.3702 34.8956 30.347 34.9353 30.3083C39.3841 25.209 43.3424 20.7783 49.5315 17.7028C55.0989 14.9652 61.1508 13.3566 67.3367 12.97C67.4026 12.9585 67.4703 12.9641 67.5333 12.9863C67.5964 13.0085 67.6526 13.0465 67.6966 13.0967C67.7406 13.1469 67.771 13.2076 67.7847 13.273C67.7985 13.3383 67.7951 13.4062 67.7751 13.47C63.5057 25.7097 48.3234 32.2647 35.9556 31.2306C35.8994 31.2292 35.8458 31.2068 35.8054 31.1678C35.765 31.1289 35.7408 31.0761 35.7373 31.0201C35.7339 30.964 35.7515 30.9087 35.7868 30.8649C35.822 30.821 35.8723 30.7919 35.9279 30.7831C41.9842 29.8108 47.9226 29.5522 53.6087 26.8594C56.3172 25.574 59.0789 24.1552 61.2518 22.0432C61.3335 21.9768 68.9185 13.4942 65.5715 13.882C59.5044 14.5864 53.4682 16.0766 48.1995 19.2993C43.2044 22.3579 40.0669 26.0577 35.9974 29.9221C39.0975 28.5903 42.0507 26.9387 44.8089 24.9941C46.3714 22.5042 48.5911 20.4922 51.2226 19.1809C51.256 19.1697 51.2923 19.1711 51.3247 19.1847C51.3571 19.1983 51.3835 19.223 51.3988 19.2546C51.4142 19.2862 51.4176 19.3223 51.4084 19.3562C51.3991 19.3902 51.3778 19.4196 51.3485 19.4392C49.1531 20.6168 47.6939 22.4069 46.0631 24.1366L46.1254 24.086C51.1723 20.5027 57.8358 19.3398 62.4503 15.3353C62.5197 15.2917 62.6026 15.2749 62.6834 15.2882C62.7641 15.3014 62.8371 15.3437 62.8887 15.4072C62.9402 15.4706 62.9667 15.5508 62.9631 15.6326C62.9595 15.7143 62.926 15.792 62.8691 15.8511C60.2335 18.1329 57.2381 18.7309 54.1735 20.254C50.2536 22.1949 46.7338 24.6603 43.0442 26.9805C38.5241 29.8207 34.277 31.995 29.0979 32.5126C30.3627 32.7341 31.6238 32.9588 32.8707 33.1821C38.2345 34.2202 43.1914 36.1488 48.4434 37.4708C50.0883 37.8885 51.7669 38.1621 53.4603 38.2885C57.1485 37.128 60.0954 34.4262 63.8375 33.2604C67.2088 32.2027 70.7169 31.5361 74.1618 30.7598C79.7723 29.493 85.7329 28.2121 91.1043 30.8661C91.1691 30.9085 91.2177 30.9715 91.2422 31.0449C91.2668 31.1184 91.2657 31.1981 91.2394 31.2712C88.9997 36.6492 82.6774 39.672 77.3519 41.1387C70.4001 43.0442 63.4886 41.5635 56.7935 39.4824C53.2404 39.5312 49.7088 38.9517 46.3619 37.7707C45.7617 37.5565 45.1602 37.3885 44.5617 37.1923C45.9481 37.8815 47.3168 38.6366 48.6678 39.4254C51.2717 39.5701 53.4627 40.7969 55.9954 41.347C59.7774 42.1335 63.4568 43.3454 66.9633 44.9596C73.0424 47.8356 78.5454 51.7912 83.2053 56.6344C83.2666 56.7069 83.3023 56.7976 83.3071 56.8925C83.3118 56.9874 83.2854 57.0815 83.2317 57.1601C81.6121 59.7626 68.9793 55.571 66.8013 54.6942C59.4146 51.7136 51.8838 47.2989 46.9512 40.9224C46.7906 40.7245 47.0452 40.4019 47.262 40.5734C52.0165 44.3526 56.2696 48.5326 61.7886 51.3048C65.3096 53.0799 69.0159 54.6852 72.8974 55.5046C72.2046 55.3592 82.6059 57.1211 81.0635 55.6511C72.4669 47.5062 61.4995 42.844 50.044 40.2452C57.1826 44.5666 64.019 49.7962 71.814 52.3809C72.0859 52.4691 72.0041 52.9411 71.7113 52.8827C59.375 50.5036 50.6321 40.1345 39.259 35.6409C35.7429 34.7308 32.1964 33.9742 28.5452 33.2318C24.894 32.4893 20.9447 32.0081 17.3453 30.7409C26.1261 37.5776 34.6746 44.8282 44.2275 50.4844C51.1742 54.6011 58.2472 58.5315 65.3047 62.4746C70.7645 63.7502 76.4594 63.1679 81.8496 65.002C85.5023 66.2905 89.0697 67.807 92.5309 69.5425C96.8733 71.661 104.481 74.9132 105.462 80.353C105.479 80.457 105.462 80.5636 105.414 80.6578C105.367 80.7519 105.291 80.8289 105.197 80.8774C89.5111 86.3672 74.5794 72.7271 63.4937 63.3144C63.4212 63.262 63.372 63.1832 63.3566 63.095C63.3411 63.0068 63.3607 62.9159 63.4111 62.8416C63.4614 62.7673 63.5387 62.7153 63.6265 62.6967C63.7143 62.6781 63.8057 62.6945 63.8815 62.7421C70.0837 66.1568 75.1201 71.5478 81.0986 75.363C84.4394 77.4968 88.003 79.6107 91.9025 80.5635C92.8179 80.792 105.729 81.7321 104.097 79.0931C100.64 73.5003 92.5815 70.4796 86.8551 67.9531C82.6925 66.1197 78.3129 64.5915 73.7124 64.2786C71.5894 64.1776 69.4738 63.9618 67.3749 63.6321C69.2497 64.6843 71.1245 65.7364 72.9624 66.7671C74.1737 67.4634 75.4392 68.0834 76.7109 68.6792C76.7122 68.6465 76.7222 68.6147 76.7398 68.587C76.7574 68.5594 76.782 68.5369 76.8111 68.5218C76.8401 68.5067 76.8726 68.4996 76.9052 68.5011C76.9379 68.5026 76.9697 68.5128 76.9971 68.5305C77.598 68.8729 78.202 69.2191 78.7664 69.6039C85.3243 72.4466 92.2408 74.5538 98.2187 78.4081C98.2485 78.4338 98.2676 78.4695 98.2726 78.5086C98.2775 78.5476 98.2679 78.5873 98.2456 78.6198C98.2232 78.6523 98.1897 78.6754 98.1514 78.6848C98.1131 78.6942 98.0728 78.6891 98.038 78.6706C92.5589 75.4862 86.5755 73.3034 80.666 70.8934C83.2537 72.744 85.7153 74.813 88.2866 76.6513C88.3162 76.6798 88.3348 76.718 88.3391 76.759C88.3433 76.8 88.333 76.8413 88.3099 76.8755C88.2867 76.9097 88.2521 76.9346 88.2124 76.9459C88.1727 76.9573 88.1302 76.9543 88.0926 76.9375C84.633 74.6813 81.1642 72.3103 77.9219 69.749C75.3997 68.6987 72.9335 67.5198 70.5329 66.2169C68.5107 65.0999 66.4815 63.9928 64.4454 62.8957C64.2182 62.8227 63.991 62.7497 63.7614 62.6658C63.7144 62.6518 63.6729 62.6238 63.642 62.5857C63.6111 62.5477 63.5923 62.5014 63.5882 62.4525C57.7801 59.3164 51.9512 56.2101 46.2601 52.876C49.006 55.5894 51.2962 58.7758 54.0119 61.5395C56.2816 63.8415 58.6319 66.1554 60.7503 68.6767C60.7503 68.6767 60.8043 68.6715 60.8348 68.6852C68.6115 73.8166 74.789 81.0247 78.6689 89.4944C81.0045 94.6135 85.6483 102.917 83.2074 108.684C83.1839 108.749 83.146 108.808 83.0965 108.857C83.047 108.905 82.9873 108.942 82.9216 108.965C82.856 108.987 82.7862 108.994 82.7175 108.986C82.6487 108.978 82.5828 108.954 82.5246 108.917C71.2416 102.084 67.2471 87.7564 63.6997 76.0071C63.5675 75.5738 64.2513 75.3661 64.4412 75.759C67.3929 81.9869 67.8537 88.9567 71.7473 94.8253C73.4153 97.3327 74.9353 99.9602 76.8292 102.316C77.4402 103.069 83.2293 110.198 83.0572 105.89C82.7886 99.4274 79.0472 91.4078 75.8033 85.9257C72.2521 80.0409 67.6683 74.846 62.271 70.5892C62.7579 71.2365 63.2325 71.9004 63.6695 72.5817C66.4985 77.0041 68.3518 81.8712 70.8978 86.4462C73.8925 91.8282 77.4217 96.8664 80.6455 102.101C80.8215 102.389 80.34 102.703 80.1523 102.424C77.2973 98.1129 74.2435 93.8989 71.6675 89.4063C72.6219 91.695 73.6729 93.9438 74.6367 96.2442C74.7175 96.4232 74.443 96.5625 74.3591 96.3796C72.8004 93.1398 70.9498 90.1371 70.1457 86.6256C68.4014 83.1891 66.8963 79.6096 64.9766 76.2832C62.2192 71.5195 58.6715 67.5005 54.8258 63.6077C51.1735 59.9053 48.0351 55.245 43.9004 52.1017C43.7945 52.0256 43.7227 51.911 43.7004 51.7824C43.678 51.6538 43.707 51.5215 43.7809 51.4136L43.6365 51.3313C39.7361 48.9696 35.9969 46.3613 32.3252 43.653C33.9864 46.4941 34.7801 49.9688 37.0312 52.582C38.1064 53.8265 39.0642 55.0377 39.9429 56.255C39.9926 56.244 40.0444 56.2493 40.0907 56.2701C47.2854 59.8572 52.4512 69.6229 54.2674 77.2042C55.2715 81.3835 55.5687 85.6863 56.1666 89.938C56.535 92.5868 57.0226 95.3188 56.1928 97.9236C56.166 97.9912 56.1247 98.0521 56.072 98.1023C56.0193 98.1524 55.9563 98.1905 55.8875 98.214C55.8186 98.2374 55.7456 98.2457 55.6733 98.2381C55.6011 98.2305 55.5315 98.2072 55.4692 98.17C49.646 94.8402 45.2276 88.1105 42.6153 82.0382C41.3475 79.0771 40.0308 75.7696 39.9952 72.4967C39.9475 68.4612 41.7961 64.5978 40.8422 60.5837C40.8322 60.5063 40.8495 60.4278 40.8913 60.3616C40.933 60.2954 40.9966 60.2457 41.0709 60.2212C41.1452 60.1968 41.2256 60.199 41.2983 60.2275C41.371 60.256 41.4314 60.309 41.469 60.3774C43.7646 65.471 40.0372 70.7827 41.6172 76.2836C43.6199 83.2436 48.1771 92.8405 54.7137 96.6272C56.0984 97.4337 54.9791 88.3406 54.841 87.2877C54.4936 84.6091 54.4845 81.8617 53.873 79.2237C52.0161 71.2186 47.543 62.139 40.6791 57.305C42.3923 59.8305 43.7722 62.5669 44.7849 65.447C46.138 67.2303 47.3612 69.1086 48.4449 71.0676C49.3795 72.6322 50.4894 74.2218 51.0458 75.9648C51.0832 76.0825 50.9039 76.1638 50.8322 76.0675C49.6731 74.6402 48.8228 72.9169 47.86 71.3495C47.0669 70.0626 46.227 68.8137 45.473 67.5272C46.7901 71.6068 47.822 75.7249 49.8081 79.6024C50.8804 81.7182 52.2765 83.867 51.4993 86.2423C51.4948 86.2631 51.4822 86.2813 51.4643 86.2928C51.4464 86.3043 51.4247 86.3083 51.4039 86.3038C51.3831 86.2993 51.3651 86.2867 51.3536 86.2689C51.3422 86.251 51.3382 86.2293 51.3428 86.2086C51.2698 82.1421 48.5263 79.71 47.3877 76.0968C45.8876 71.3227 44.7598 66.2591 42.6292 61.7265C40.6815 57.5861 37.4735 54.4627 34.747 50.8903C34.8057 51.1774 34.8401 51.4584 34.8762 51.7574C34.9085 51.7594 34.9402 51.7681 34.969 51.7829C34.9978 51.7977 35.0232 51.8185 35.0436 51.8436C35.064 51.8687 35.079 51.8978 35.0876 51.929C35.0962 51.9603 35.0982 51.993 35.0936 52.0251C35.0238 52.4164 34.9973 52.7018 34.937 52.9696L34.928 53.3243C34.9525 53.2931 34.9861 53.2702 35.0241 53.2589C35.0621 53.2476 35.1026 53.2484 35.1401 53.2612C35.1775 53.274 35.21 53.2983 35.233 53.3305C35.2559 53.3627 35.2681 53.4013 35.2681 53.4409C34.544 59.429 37.2663 65.0322 36.1771 71.0079C35.1379 76.7112 30.7231 82.0274 27.9703 86.9725C27.8943 87.0512 27.7911 87.0977 27.682 87.1025C27.5729 87.1072 27.4661 87.0698 27.3841 86.9981ZM55.628 38.3177C59.6807 38.29 63.4784 37.4074 67.9336 36.3642C71.5243 35.521 74.833 34.9906 78.4323 35.9554C78.7542 36.0416 78.6502 36.5895 78.3144 36.5339C74.5989 35.8951 71.3356 36.569 68.0633 37.4304C70.3164 37.5781 72.5458 37.9713 74.7118 38.6032C74.8568 38.6464 74.8135 38.8876 74.6593 38.8647C72.706 38.5907 70.7611 38.4065 68.7929 38.2733C67.7815 38.2128 66.7452 38.1854 65.7303 38.057C63.7151 38.6398 61.6561 39.0567 59.5739 39.3036C59.524 39.3114 59.4736 39.3158 59.4231 39.3167C64.8526 40.7778 70.3377 42.2517 75.9647 40.7268C79.5679 39.7319 83.5738 38.3262 86.5538 35.9515C90.162 33.0858 91.0286 30.0651 85.3746 29.9898C79.2334 29.9112 72.9382 31.6311 67.0062 33.1461C63.0661 34.1636 59.4443 36.9888 55.6438 38.3371L55.628 38.3177ZM31.8647 78.7964C34.4079 74.2533 36.6107 69.8319 35.7104 64.4999C35.2086 61.4961 34.5226 58.6547 34.66 55.6983C34.4694 56.5709 34.2313 57.4326 33.9465 58.2794C33.7466 58.8923 33.5569 59.5097 33.3602 60.1264C33.3911 60.145 33.4145 60.1738 33.4264 60.2078C33.643 61.4608 33.5753 62.7773 33.7349 64.0316C33.8679 65.1658 33.9823 66.3087 34.1513 67.4394C34.1557 67.4721 34.1474 67.5052 34.1283 67.5322C34.1091 67.5591 34.0804 67.5778 34.048 67.5844C34.0157 67.5911 33.9821 67.5852 33.9539 67.568C33.9258 67.5508 33.9054 67.5235 33.8967 67.4917C33.4858 65.7529 32.8482 63.7668 32.8376 61.8767C31.1068 67.6275 29.9154 73.525 29.2788 79.493C29.2741 79.5367 29.2528 79.577 29.2193 79.6054C29.1857 79.6338 29.1425 79.6482 29.0986 79.6455C29.0548 79.6429 29.0138 79.6235 28.9841 79.5913C28.9544 79.5591 28.9383 79.5165 28.9393 79.4726C28.718 73.911 30.5893 68.5168 31.977 63.187C32.6942 60.4355 33.9094 57.3826 34.2625 54.4055C34.1568 54.5299 34.0293 54.6592 33.8854 54.8082C30.6787 58.0171 29.2721 61.3671 27.5176 65.4179C25.3314 70.4564 22.4416 77.7461 25.4076 83.0292C28.1865 87.9943 30.2848 81.6625 31.8804 78.8157L31.8647 78.7964Z" fill="#41844D"/>
<path d="M96.8845 75.3334C92.0966 72.1413 86.4477 70.3305 80.9164 68.9907C80.8823 68.9829 80.8466 68.988 80.8161 69.0052C80.7856 69.0223 80.7626 69.0501 80.7515 69.0833C80.7404 69.1164 80.7421 69.1525 80.7562 69.1844C80.7704 69.2163 80.796 69.2417 80.8279 69.2556C86.2478 71.2138 91.6733 72.8132 96.8025 75.5029C96.8753 75.521 96.9747 75.3889 96.8845 75.3334Z" fill="#41844D"/>
<path d="M78.9561 95.3756C76.5332 91.1512 73.7607 87.037 70.9685 83.0417C70.9449 83.0168 70.9131 83.0012 70.879 82.9975C70.8448 82.9938 70.8104 83.0024 70.7819 83.0217C70.7534 83.041 70.7325 83.0697 70.7232 83.1028C70.7139 83.1359 70.7166 83.1712 70.7309 83.2024C73.073 87.5121 75.7529 91.6288 78.7457 95.5142C78.764 95.542 78.7926 95.5615 78.8253 95.5681C78.8579 95.5748 78.892 95.5683 78.9199 95.5499C78.9478 95.5315 78.9672 95.5028 78.974 95.4701C78.9808 95.4375 78.9744 95.4034 78.9561 95.3756Z" fill="#41844D"/>
<path d="M46.9909 80.3324C48.2755 83.6402 49.7366 86.895 51.2256 90.1205C51.2449 90.1588 51.2783 90.188 51.3188 90.202C51.3594 90.2159 51.404 90.2136 51.4429 90.1953C51.4819 90.1771 51.5123 90.1444 51.5276 90.1043C51.5429 90.0641 51.542 90.0196 51.5251 89.9803C50.0619 86.7467 48.9416 83.331 47.2607 80.2033C47.2414 80.1718 47.211 80.1485 47.1754 80.1381C47.1399 80.1276 47.1017 80.1307 47.0682 80.1468C47.0347 80.1628 47.0082 80.1906 46.9939 80.2248C46.9797 80.2591 46.9786 80.2975 46.9909 80.3324Z" fill="#41844D"/>
<path d="M30.9308 76.4136C31.4301 73.5688 32.2286 70.6549 32.0089 67.7438C31.9978 67.579 31.7453 67.6102 31.729 67.7651C31.3957 70.6553 30.9911 73.5133 30.5318 76.3836C30.4903 76.6426 30.8869 76.6617 30.9308 76.4136Z" fill="#41844D"/>
<path d="M14.4012 49.9175C14.2203 52.7339 14.9768 55.5278 16.5526 57.8638C16.6597 57.9957 16.8496 57.8479 16.7894 57.7102C16.2205 56.429 15.7472 55.1072 15.3736 53.7556C15.0412 52.4873 14.9479 51.1793 14.7131 49.896C14.7028 49.8612 14.6809 49.831 14.6511 49.8103C14.6213 49.7896 14.5853 49.7798 14.549 49.7823C14.5127 49.7848 14.4783 49.7995 14.4515 49.8241C14.4246 49.8487 14.4069 49.8816 14.4012 49.9175Z" fill="#41844D"/>
<path d="M83.5678 34.1989C83.7162 34.1749 83.7076 33.918 83.5466 33.9265C79.4696 34.0833 75.1129 32.9095 71.1119 33.9314C70.9034 33.9848 70.8984 34.3366 71.1376 34.329C75.2306 34.2236 79.514 34.8775 83.5678 34.1989Z" fill="#41844D"/>
<path d="M61.1077 18.8197C57.4293 19.9207 54.6353 22.6915 51.2094 24.3342C51.0744 24.3987 51.1415 24.6403 51.2961 24.592C54.95 23.4529 57.5341 20.344 61.1729 19.1464C61.3751 19.0852 61.3169 18.7592 61.1077 18.8197Z" fill="#41844D"/>
<path d="M75.5515 53.1819C72.0658 51.2753 68.5851 49.1521 64.8392 47.7205C64.7991 47.7072 64.7553 47.709 64.7162 47.7253C64.6771 47.7417 64.6452 47.7717 64.6264 47.8097C64.6077 47.8477 64.6034 47.8913 64.6142 47.9322C64.625 47.973 64.6503 48.0086 64.6853 48.0322C68.1479 49.9898 71.8004 51.6325 75.321 53.4786C75.5337 53.6213 75.7633 53.2996 75.5515 53.1819Z" fill="#41844D"/>
</g>
<defs>
<clipPath id="clip0_279_25">
<rect width="85" height="130" fill="white" transform="matrix(-0.776294 0.630371 0.630371 0.776294 44.1995 -27)"/>
</clipPath>
</defs>
</svg>
