<svg width="103" height="149" viewBox="0 0 103 149" fill="none" xmlns="http://www.w3.org/2000/svg">
<g clip-path="url(#clip0_318_1456)">
<path d="M71.512 34.1674L71.667 34.0969C71.6207 34.1307 71.568 34.1546 71.512 34.1674Z" fill="#6DB133"/>
<path d="M74.1805 30.684C75.6301 29.894 77.2292 29.317 78.7288 28.5865C81.5694 27.1744 84.5596 26.0803 87.6444 25.3242C90.477 24.6324 93.5777 23.2836 96.5098 23.2938C94.8583 24.0776 93.2559 24.9593 91.7111 25.9342C88.6701 27.7819 85.2697 29.4823 82.0191 31.1041C80.2909 31.8813 78.4854 32.4768 76.632 32.8811C74.972 33.32 73.0813 34.1464 71.3797 34.2291L71.5118 34.1675C71.5678 34.1547 71.6205 34.1307 71.6668 34.0969C71.6205 34.1307 71.5678 34.1547 71.5118 34.1675C71.3541 34.2185 71.1902 34.2484 71.0245 34.2563C70.5439 33.1525 73.3143 31.1351 74.1805 30.684Z" fill="#6DB133"/>
<path d="M74.0334 32.7835C76.6364 32.1233 79.1707 31.2217 81.6031 30.0906C86.2908 27.8011 90.7891 25.0957 95.7889 23.5264C95.9669 23.4737 96.134 23.39 96.2826 23.2793L96.4995 23.2777C94.8474 24.0569 93.2454 24.9365 91.7023 25.9114C88.6613 27.7591 85.2609 29.4595 82.0022 31.0865C80.2772 31.8634 78.4742 32.4573 76.6232 32.8584C74.9631 33.2973 73.0658 34.1222 71.3709 34.2063L71.5016 34.1513C71.4178 34.1772 71.332 34.1958 71.245 34.2068C72.0791 33.5673 73.0241 33.085 74.0334 32.7835Z" fill="#5F9E24"/>
<path d="M74.3416 33.1974C75.6441 32.6672 77.3083 32.4028 78.6517 32.0064C81.7592 31.0273 84.7313 29.6677 87.4998 27.9589C92.3886 24.741 96.6152 23.5805 94.7051 23.7223C92.1861 24.2035 89.6962 24.8231 87.2469 25.5783C83.6749 26.6515 79.7117 28.112 79.3654 28.2592C82.0178 26.9865 84.7971 25.9922 87.6581 25.2925C90.4907 24.6007 93.5913 23.2519 96.5234 23.2621C94.872 24.0459 93.2696 24.9276 91.7248 25.9025C88.6838 27.7502 85.2834 29.4506 82.0328 31.0724C80.3046 31.8495 78.4991 32.4451 76.6457 32.8494C74.9857 33.2883 73.095 34.1147 71.3934 34.1974L71.5255 34.1357C71.3865 34.1843 71.2415 34.2136 71.0944 34.2229C72.2093 33.9915 73.2973 33.6479 74.3416 33.1974Z" fill="#82D13E"/>
<path opacity="0.48" d="M74.2724 30.6482L74.7689 30.3878C75.9047 31.2725 77.4589 31.387 79.0653 31.1309C80.3833 30.9164 81.7336 30.7784 83.063 30.6081L82.1052 31.095C80.3774 31.8702 78.5724 32.4635 76.7195 32.8653C75.0662 33.3056 73.1689 34.1305 71.4739 34.2147L71.5507 34.1828L71.3518 34.2299L71.2364 34.2466L71.163 34.2307L71.103 34.2177C70.6343 33.1234 73.3947 31.1524 74.2724 30.6482Z" fill="#3E5422"/>
<path d="M71.6994 27.2376C72.1714 28.284 73.7671 32.5939 71.8471 33.2333C71.5059 34.1314 71.2842 34.6388 70.4482 34.8535C69.4926 35.1048 69.3247 33.5896 68.8771 32.4304C68.3005 31.1578 67.655 29.9172 66.9433 28.7138C65.5844 26.2464 64.5811 24.8142 63.2571 22.2502C61.9035 19.8176 61.2156 17.0757 61.2623 14.2992C61.316 11.8254 60.8292 9.23441 60.8539 6.73343C63.0236 11.5217 66.6418 15.6865 68.7351 20.6665C69.66 22.8802 70.7331 25.0218 71.6994 27.2376Z" fill="#6DB133"/>
<path d="M69.3359 22.0532C70.1057 23.789 70.9361 25.5032 71.706 27.239C72.178 28.2854 73.7736 32.5953 71.8536 33.2348C71.5124 34.1328 71.2907 34.6403 70.4547 34.8549C69.4991 35.1062 69.3312 33.591 68.8836 32.4319C68.3071 31.1593 67.6615 29.9186 66.9499 28.7153C65.619 26.3442 64.6415 24.8897 63.3717 22.4625C65.5527 25.2954 67.6249 28.2436 68.9154 31.5431C69.8677 33.9849 70.8385 33.7925 71.6564 32.5325C72.7158 30.8666 71.2059 27.1932 70.5768 25.356C70.2021 24.2473 69.743 23.1412 69.3359 22.0532Z" fill="#6AAA2A"/>
<path d="M70.8668 34.6943C70.7735 29.2865 68.5841 24.5564 66.1784 19.7934C65.0532 17.6556 64.0431 15.46 63.1526 13.2159C64.0782 15.1035 65.0687 16.9495 65.9686 18.7621C68.27 23.4262 71.4853 28.2257 71.7298 33.5481C71.5917 34.0219 71.285 34.4292 70.8668 34.6943Z" fill="#5F9E24"/>
<path d="M61.6819 15.9731C61.893 17.6067 62.1901 19.2283 62.572 20.8314C61.6501 18.7774 61.2025 16.5453 61.262 14.2992C61.3157 11.8254 60.8289 9.23441 60.8536 6.73343C62.6821 10.7744 65.5428 14.3724 67.6503 18.3835C67.5208 18.1749 67.3899 17.973 67.2618 17.7578C66.2878 16.1583 64.3221 13.5248 63.2522 11.9809C62.3542 10.6756 60.9544 6.97744 61.142 8.33718C61.1609 8.5079 61.6252 15.4609 61.6819 15.9731Z" fill="#82D13E"/>
<path opacity="0.59" d="M68.8739 32.4437C68.2974 31.1711 67.6518 29.9304 66.9402 28.7271L66.695 28.2783L66.5984 28.1115L66.4523 27.8508L66.3699 27.7149L66.2133 27.438L66.1728 27.3667C65.8163 26.7549 65.4816 26.2034 65.1498 25.6386C65.4325 25.7999 65.7267 25.9402 66.03 26.0584C67.4946 26.6186 68.1914 26.8528 68.8075 28.3956C69.1931 29.2529 69.6851 30.0592 70.2718 30.7955C70.6555 32.0067 70.6359 33.3076 70.216 34.5048C70.1799 34.624 70.1535 34.746 70.1371 34.8695C69.4535 34.7353 69.2849 33.4491 68.8739 32.4437Z" fill="#3E5422"/>
<path d="M85.3164 33.0402C87.7828 33.3939 93.388 35.7395 94.2924 37.3378C93.5685 36.938 92.8576 36.4786 92.0889 36.1247C90.6526 35.3294 89.0416 34.8994 87.3996 34.873C85.7461 34.9592 84.1808 35.6061 82.5154 35.6828C80.9651 35.694 79.4309 35.3618 78.0242 34.7101C76.9433 34.2816 74.2894 32.9223 73.5028 34.4251C72.9978 33.5312 74.8725 32.9722 75.5287 32.7811C78.6566 31.8547 82.2335 32.6294 85.3164 33.0402Z" fill="#568E20"/>
<path d="M80.0545 33.5946L80.7891 33.719C80.2961 33.7372 77.0487 33.3116 76.1523 33.4507C75.6044 33.5104 75.0643 33.626 74.5405 33.7959C74.3132 33.7819 74.089 33.852 73.911 33.9928C74.3274 33.6573 74.8258 33.4371 75.3557 33.3545C76.9235 33.1653 78.5131 33.2465 80.0545 33.5946Z" fill="#75BC38"/>
<path d="M85.3167 33.0402C87.4363 33.4761 89.4842 34.2071 91.3997 35.2116C88.9456 34.3362 86.3996 33.7429 83.8112 33.4431C80.868 33.0973 76.7284 32.4368 73.7213 33.6115C74.2727 33.2385 74.8832 32.9601 75.5276 32.7877C78.6569 31.8547 82.2339 32.6294 85.3167 33.0402Z" fill="#629F2E"/>
<path d="M91.431 35.2601C92.8025 35.9598 93.9094 36.7202 94.2869 37.3643C93.563 36.9646 92.8521 36.5051 92.0834 36.1512C90.6471 35.356 89.0361 34.926 87.3941 34.8995C85.7406 34.9858 84.1753 35.6326 82.5099 35.7093C80.9596 35.7206 79.4254 35.3883 78.0187 34.7366C77.7418 34.628 77.3801 34.4594 76.9221 34.2839C77.8131 34.4872 78.6903 34.7467 79.5484 35.061C81.6171 35.509 83.2984 35.2622 85.3879 34.9371C87.7777 34.5252 90.2396 34.9167 92.3848 36.0498C92.573 36.1808 93.0507 36.201 91.431 35.2601Z" fill="#75BC38"/>
<path d="M60.4459 41.3587C61.0618 41.4504 61.0797 41.1419 61.7227 41.302C62.3651 41.3892 62.9792 41.622 63.5176 41.9823C64.0127 42.277 64.3628 42.0473 64.9241 42.4882C64.2328 45.067 57.8067 43.2865 58.721 41.2906C59.2087 40.813 59.8233 41.2655 60.4459 41.3587Z" fill="#1D490E"/>
<path d="M59.6162 82.0925C59.0287 84.8472 58.1185 87.5231 56.9043 90.0656C56.5193 90.8108 56.0514 91.5106 55.5093 92.1518C54.9609 92.0818 54.4047 92.107 53.8654 92.2262L53.7633 92.2457C54.4436 91.2336 55.1373 90.2244 55.6874 89.2327C57.1169 86.4649 58.0708 83.4778 58.5097 80.3949C59.4976 74.132 61.5058 68.0737 64.4554 62.4582L64.599 61.795C64.8841 63.898 64.3961 65.3127 63.5167 67.1148C60.6787 72.8319 61.2105 74.6342 59.6162 82.0925Z" fill="#9BC221"/>
<path d="M76.3277 56.9967C78.4645 57.0984 83.4439 58.6559 84.3433 59.9546C83.7061 59.6708 83.0456 59.3333 82.365 59.0887C81.074 58.5263 79.6645 58.2878 78.2607 58.3942C76.8212 58.5893 75.5686 59.2761 74.1505 59.4688C72.8273 59.6146 71.4873 59.4597 70.2314 59.0158C69.2729 58.7318 66.9009 57.7807 66.3428 59.1317C65.8715 58.4048 67.4044 57.7787 67.9486 57.5563C70.5498 56.4812 73.6594 56.8978 76.3277 56.9967Z" fill="#64B150"/>
<path d="M76.3278 56.9967C78.1728 57.1992 79.9806 57.6585 81.6983 58.3612C79.5315 57.8121 77.31 57.508 75.0759 57.4545C72.5329 57.3898 68.944 57.154 66.4933 58.3728C66.9299 58.0047 67.4299 57.7179 67.9692 57.5261C70.5499 56.4813 73.6594 56.8978 76.3278 56.9967Z" fill="#83BF5C"/>
<path d="M81.7366 58.3765C82.7197 58.687 83.6138 59.2284 84.343 59.9546C83.7059 59.6708 83.0454 59.3334 82.3648 59.0888C81.0737 58.5263 79.6643 58.2878 78.2605 58.3943C76.8209 58.5893 75.5683 59.2761 74.1503 59.4689C72.827 59.6146 71.487 59.4597 70.2312 59.0158C69.9776 58.9609 69.6368 58.8246 69.2555 58.7143C70.0282 58.8155 70.7936 58.9674 71.5464 59.1688C73.2282 59.311 74.9207 59.1182 76.5249 58.6016C78.5344 58.0605 80.6696 58.2005 82.5937 58.9995C82.7801 59.0746 83.1953 59.0604 81.7366 58.3765Z" fill="#B2E0A6"/>
<path d="M65.9936 60.4863C65.9182 60.4741 65.8408 60.4839 65.7709 60.5145C65.763 60.0976 65.8666 59.6863 66.0709 59.3228C66.2275 58.9884 66.4829 58.7095 66.803 58.5233C66.9624 58.4232 67.1269 58.3314 67.2958 58.2481C67.4795 58.1495 67.6743 58.0728 67.8762 58.0197C69.1992 57.7324 70.5634 57.68 71.9059 57.865L72.5386 57.9117C72.1228 57.9605 69.3152 57.8593 68.5627 58.0435C68.2759 58.0906 67.9948 58.167 67.7239 58.2714C67.5889 58.3463 66.9589 58.5778 66.8477 58.6718C66.497 58.9178 66.2366 59.2708 66.1059 59.6775C66.0649 59.8189 66.0337 59.9629 66.0125 60.1086C66.013 60.2348 66.0066 60.3608 65.9936 60.4863Z" fill="#9BC221"/>
<path d="M65.1365 61.4741C66.799 60.9594 67.8773 64.7545 68.0896 65.71C68.534 67.7225 68.8898 69.7573 69.3733 71.7505C70.4534 76.2473 70.0621 80.9252 70.9878 85.3608C69.6983 83.6374 68.7227 81.5932 67.4193 79.9016C65.9726 77.997 65.0548 75.7485 64.7582 73.3823C64.3709 70.9448 64.3379 69.4519 64.033 67.0531C63.91 65.8638 63.7254 64.6813 63.4798 63.5106C63.2219 62.4758 62.5502 61.3514 63.3166 61.0383C64.0831 60.7253 64.4456 61.019 65.1365 61.4741Z" fill="#6DB133"/>
<path d="M64.7306 73.1887C64.3684 70.8609 64.3326 69.3812 64.0334 67.0531C63.9103 65.8637 63.7257 64.6813 63.4802 63.5105C63.2222 62.4757 62.5505 61.3513 63.3169 61.0383C64.0834 60.7252 64.4193 61.0132 65.1102 61.4683C66.7726 60.9536 67.851 64.7487 68.0632 65.7042C68.4175 67.2944 68.7126 68.8996 69.0616 70.4818C68.804 69.5096 68.5317 68.5411 68.2313 67.5735C67.7326 65.9728 66.9284 62.6536 65.328 62.0431C64.1217 61.5805 63.34 61.9319 63.9254 64.0999C64.6241 67.0776 64.8952 70.1376 64.7306 73.1887Z" fill="#6AAA2A"/>
<path d="M68.4085 74.4644C68.7354 76.1806 68.9598 77.951 69.282 79.7217C68.7551 77.7207 68.3383 75.6928 68.0335 73.6472C67.2657 69.1279 66.3767 64.7488 63.6864 60.9448C64.1183 60.9177 64.5452 61.0522 64.8832 61.322C67.4515 65.1413 67.6773 70.0987 68.4085 74.4644Z" fill="#5F9E24"/>
<path d="M69.7991 74.4948C69.7807 74.2895 69.7637 74.0775 69.752 73.8736C70.3197 77.704 70.1669 81.6352 70.9612 85.355C69.6717 83.6316 68.6962 81.5874 67.3928 79.8958C66.2251 78.3653 65.4149 76.5959 65.0213 74.7166C65.5672 76.0247 66.1864 77.3015 66.8758 78.541C67.0909 78.9348 70.3145 83.9861 70.3797 84.1043C70.9376 85.1416 70.0309 81.8765 69.9906 80.5139C69.9391 78.9129 69.955 76.0976 69.7991 74.4948Z" fill="#82D13E"/>
<path opacity="0.48" d="M63.48 63.5105C63.2221 62.4757 62.5504 61.3513 63.3168 61.0383C63.4353 60.991 63.5595 60.9596 63.6864 60.9448L63.8132 60.9722C63.8973 60.9806 63.9801 60.9985 64.0601 61.0257L64.2269 61.0618L64.307 61.0792L64.4739 61.1153L64.5735 61.1716L64.6669 61.1918L64.797 61.2686L64.8704 61.2845L65.0429 61.3913C65.1502 61.8311 65.2657 62.2657 65.3811 62.7003C65.1481 62.7733 64.9352 62.8983 64.7584 63.0658C64.5817 63.2333 64.4459 63.4388 64.3614 63.6667C64.1117 64.3798 63.9401 65.1177 63.8498 65.8678C63.7663 65.0765 63.6429 64.2898 63.48 63.5105Z" fill="#48602C"/>
<path opacity="0.48" d="M70.1327 77.2122C69.8826 76.4638 69.6325 75.7153 69.3891 74.9683C68.6757 72.4768 67.8051 70.032 66.7825 67.6486C66.3595 66.7308 65.9121 65.8285 65.4715 64.9277C64.9711 63.6252 64.507 62.3166 64.09 60.9836L64.1701 61.0009L64.2769 61.0241L64.3303 61.0356L64.4971 61.0718L64.5967 61.128L64.6901 61.1483L64.8202 61.2251L64.8936 61.241L65.1204 61.3873C66.7829 60.8725 67.8612 64.6677 68.0735 65.6232C68.1827 66.1189 68.2905 66.6213 68.3916 67.1223L68.3801 67.1753C68.5946 68.2493 68.8034 69.3498 69.0385 70.3935C69.1287 70.8158 69.2256 71.2394 69.3305 71.6579C69.4872 72.3861 69.6258 73.0687 69.7358 73.7868C69.943 74.9911 70.0527 76.0979 70.1327 77.2122Z" fill="#48602C"/>
<path d="M60.7641 63.8249C61.138 63.0658 62.7417 60.6291 63.7178 60.9932C63.7169 61.1345 63.6982 61.2751 63.6621 61.4116L63.6305 61.5575L63.6621 61.4116L63.6865 61.2989C63.68 62.7485 63.0506 64.3965 62.707 65.8217C62.4361 67.4166 61.9971 68.9784 61.3974 70.4813C60.1319 73.3245 58.8043 76.2931 57.3339 78.953C56.5576 80.3114 55.8619 81.7139 55.2505 83.1534C55.0945 80.648 56.1596 77.9558 56.6452 75.52C57.1691 72.857 57.9913 70.2616 59.0966 67.7821C59.7061 66.4839 60.1431 65.0789 60.7641 63.8249Z" fill="#6DB133"/>
<path d="M63.6623 61.4116C63.6587 61.4615 63.6481 61.5107 63.6307 61.5575L63.6623 61.4116Z" fill="#6DB133"/>
<path d="M62.5692 63.6188C62.7905 62.7534 63.1711 61.9367 63.6918 61.2098C63.6827 61.284 63.6668 61.3573 63.6444 61.4286L63.6702 61.3092C63.6637 62.7588 63.0009 64.3996 62.6907 65.832C62.4204 67.4271 61.9815 68.989 61.3811 70.4916C60.1156 73.3348 58.7813 76.302 57.3162 78.9701C56.5382 80.325 55.8429 81.7255 55.2342 83.1638L55.2315 82.9827C55.3186 82.8503 55.3853 82.7056 55.4293 82.5535C56.5693 78.2251 58.7245 74.2416 60.5032 70.1904C61.4 68.0705 62.0918 65.87 62.5692 63.6188Z" fill="#5F9E24"/>
<path d="M63.6622 61.4116L63.6866 61.2989C63.68 62.7485 63.0506 64.3965 62.707 65.8217C62.4362 67.4167 61.9972 68.9784 61.3975 70.4813C60.132 73.3245 58.8044 76.2931 57.334 78.953C56.5577 80.3114 55.862 81.7139 55.2506 83.1535C55.0945 80.6481 56.1597 77.9559 56.6453 75.52C57.1275 73.0488 57.8725 70.6361 58.8678 68.3227C58.764 68.6404 57.6587 72.0668 56.8716 75.1525C56.3173 77.2701 55.8804 79.4167 55.5628 81.5826C55.5213 83.226 56.3498 79.5939 58.9249 75.2847C60.2941 72.8574 61.3565 70.2706 62.088 67.583C62.3092 66.3303 62.5942 65.0897 62.942 63.8661C63.294 62.9528 63.5528 62.0063 63.7145 61.0411C63.7108 61.1662 63.6933 61.2904 63.6622 61.4116Z" fill="#82D13E"/>
<path d="M70.7529 59.8648C72.1477 60.1668 73.5265 60.639 74.9193 60.9823C77.5756 61.6177 80.1541 62.5417 82.6085 63.7376C84.8578 64.8357 87.6509 65.6489 89.5699 67.2726C88.0479 66.8784 86.5034 66.5764 84.9451 66.3682C81.9205 65.9144 78.7368 65.1624 75.6933 64.4408C74.1334 64.0044 72.6239 63.4052 71.19 62.6532C69.8561 62.038 68.1483 61.5362 66.9829 60.659L67.103 60.685C66.9708 60.6269 66.846 60.5533 66.7314 60.4656C66.9921 59.4876 69.9226 59.6988 70.7529 59.8648Z" fill="#6DB133"/>
<path d="M69.494 61.1612C71.5694 62.1607 73.7352 62.9622 75.962 63.5548C80.3139 64.6223 84.7944 65.3219 88.945 67.0609C89.0948 67.1175 89.2522 67.1516 89.4121 67.162C89.4655 67.1736 89.5088 67.2316 89.555 67.2763C88.0323 66.8854 86.4881 66.5834 84.9303 66.3719C81.9056 65.9182 78.722 65.1662 75.6718 64.4431C74.1115 64.0094 72.6014 63.4125 71.1671 62.6621C69.8279 62.0388 68.1201 61.5371 66.9533 60.6664L67.0734 60.6925L66.8714 60.5931C67.7728 60.6209 68.6618 60.8134 69.494 61.1612Z" fill="#5F9E24"/>
<path d="M69.4689 61.6001C70.619 61.9672 71.8574 62.7006 72.9683 63.1842C75.5549 64.2511 78.2642 64.9941 81.0337 65.3961C86.0501 65.9757 89.4671 67.5211 88.1168 66.5622C86.189 65.4991 84.2036 64.543 82.1699 63.6982C79.2213 62.4417 75.8059 61.2438 75.4875 61.1332C77.9459 61.7506 80.3327 62.6236 82.6085 63.7376C84.8578 64.8358 87.6509 65.649 89.5699 67.2726C88.0478 66.8784 86.5034 66.5764 84.9451 66.3682C81.9204 65.9144 78.7368 65.1625 75.6933 64.4408C74.1334 64.0044 72.6239 63.4052 71.19 62.6532C69.8561 62.038 68.1483 61.5362 66.9829 60.659L67.103 60.685C66.9856 60.636 66.875 60.5724 66.7737 60.4957C67.6307 60.9572 68.5341 61.3274 69.4689 61.6001Z" fill="#82D13E"/>
<path d="M84.9385 66.3667C81.9138 65.913 78.7302 65.161 75.6867 64.4394C74.5312 64.1462 73.4102 63.7312 72.3428 63.2014L73.5526 63.519C76.5169 64.2512 82.5992 65.6518 85.6399 66.1924C88.9239 66.7717 83.9453 64.3396 83.9453 64.3396C85.864 65.1578 87.8991 65.8902 89.4418 67.1546C89.4951 67.1661 89.5385 67.2241 89.5847 67.2688L89.5513 67.2616C88.033 66.8712 86.4926 66.5723 84.9385 66.3667Z" fill="#F2E75F"/>
<path d="M86.8577 66.6991C87.1674 66.7565 87.4842 66.7642 87.796 66.7218C88.0082 66.6905 88.2108 66.6135 88.3898 66.4963C88.7333 66.7052 89.0639 66.9345 89.3799 67.1828C89.4333 67.1944 89.4766 67.2524 89.5228 67.2971L89.4894 67.2899C88.7073 67.0302 87.7916 66.8388 86.8577 66.6991Z" fill="#E8C325"/>
<path opacity="0.48" d="M66.687 60.4769C66.7588 60.1453 67.1618 59.9618 67.6535 59.8531C68.7209 60.28 69.7343 60.8304 70.6728 61.4928C71.402 62.0741 72.0894 62.7055 72.7297 63.3824L72.3294 63.1985L71.1485 62.6512C69.8093 62.0279 68.1015 61.5261 66.9347 60.6555L67.0215 60.6743L66.888 60.6454L66.848 60.6367L66.7193 60.5533L66.687 60.4769Z" fill="#48602C"/>
<path d="M66.5238 60.3929C67.8721 59.2964 70.2779 62.414 70.8498 63.2252C72.0177 64.9291 73.1098 66.6931 74.305 68.3682C76.981 72.1415 78.3929 76.6545 80.914 80.4012C79.0556 79.3044 77.3941 77.7504 75.5557 76.6579C73.5011 75.427 71.8071 73.6809 70.6439 71.5951C69.3709 69.4727 68.782 68.0954 67.5905 65.9837C67.0503 65.0266 66.3844 63.7785 65.7506 62.8984C65.1168 62.0182 64.0839 61.2391 64.699 60.6572C65.314 60.0754 65.7134 60.2313 66.5238 60.3929Z" fill="#80B17D"/>
<path d="M66.4091 63.2771C68.1662 65.7847 69.5577 68.5264 70.542 71.4204C69.3385 69.3963 68.7453 68.0389 67.5905 65.9837C67.0502 65.0266 66.3843 63.7785 65.7506 62.8984C65.1168 62.0182 64.0839 61.2391 64.6989 60.6572C65.314 60.0753 65.7134 60.2313 66.5309 60.3597C67.8792 59.2632 70.2851 62.3808 70.8569 63.192C71.7811 64.5377 72.6552 65.9212 73.5756 67.2522C72.9785 66.4286 72.3594 65.6419 71.7122 64.856C70.6521 63.5572 68.6631 60.7729 66.9448 60.8034C65.6451 60.8691 65.0591 61.4781 66.4091 63.2771Z" fill="#6DAA66"/>
<path d="M74.4597 71.2344C75.3766 72.7104 76.283 74.2675 77.238 75.7934C75.9975 74.1295 74.8492 72.3999 73.798 70.612C71.3958 66.7037 68.9281 62.9686 65.0061 60.4322C65.3982 60.2463 65.8466 60.2146 66.262 60.3432C70.0452 62.9398 72.1131 67.4562 74.4597 71.2344Z" fill="#5E9E59"/>
<path d="M75.7585 70.752L75.4763 70.1841C77.4543 73.5353 78.783 77.2389 80.9165 80.3879C79.0582 79.2911 77.3966 77.7371 75.5582 76.6447C73.8878 75.6659 72.461 74.3244 71.3848 72.7207C72.3825 73.7314 73.4349 74.6871 74.5375 75.5835C74.8814 75.8663 79.7694 79.3618 79.87 79.4461C80.7813 80.2058 78.7108 77.5079 78.1555 76.2977C77.5213 74.8065 76.4834 72.1795 75.7585 70.752Z" fill="#9BD197"/>
<path d="M40.909 141.567C34.9966 140.092 35.8875 138.14 36.7666 137.08C40.1878 132.961 43.5851 112.501 44.4109 107.688C44.9103 104.769 46.2567 98.8748 47.1209 93.2717C47.2116 92.6596 46.5021 90.0968 48.0974 90.5048C49.2583 92.1448 53.3809 92.142 55.1589 91.5134C55.9608 94.0685 53.6296 94.9938 52.7837 98.2542C52.1675 100.648 49.0074 115.078 47.9031 119.983C46.8456 124.704 45.1913 132.052 44.0187 136.596C42.9867 140.587 45.0579 142.604 40.909 141.567Z" fill="#9BC221"/>
<path d="M42.8451 141.82C42.1923 141.848 41.5394 141.763 40.9154 141.568C38.7208 141.024 37.4699 140.412 36.7987 139.802C36.8294 139.255 36.9323 138.715 37.1048 138.195C37.8037 136.097 39.0297 134.21 39.8154 132.131C41.4967 127.594 42.3554 122.822 43.3017 118.098C44.294 113.161 45.2596 108.219 45.9488 103.231C46.2765 100.879 46.9541 98.5885 47.2085 96.2206C47.3443 95.2642 47.376 94.2958 47.3031 93.3321C47.2162 92.4107 46.983 91.423 47.4906 90.5956L47.5049 90.5293C47.6937 90.4549 47.9024 90.4463 48.0971 90.5048C49.258 92.1448 53.3805 92.142 55.1585 91.5134C55.3512 92.0782 55.3726 92.6865 55.2199 93.2624C52.1731 95.5879 49.4804 93.4079 48.3838 95.6004C47.9418 96.1573 45.1066 117.184 42.7578 126.513C42.1868 128.778 41.4026 130.983 40.4157 133.101C39.7488 134.567 38.8632 136.431 39.38 138.077C39.678 138.898 40.1381 139.653 40.7331 140.295C41.3282 140.938 42.0463 141.456 42.8451 141.82Z" fill="#8DAA16"/>
<path d="M55.1588 91.5134C55.238 91.7659 55.2894 92.0262 55.3121 92.2895C53.5097 94.6762 49.0111 92.9313 47.2538 90.7872C47.4009 90.5275 47.6665 90.3976 48.1241 90.5106C49.2626 92.1249 53.4009 92.1464 55.1588 91.5134Z" fill="#D8D7BA"/>
<path d="M37.8093 139.299C39.1183 140.513 41.6746 141.677 43.5816 141.195C43.3841 141.881 42.7847 142.036 40.9091 141.567C35.6997 140.265 35.767 138.599 36.4674 137.495C36.7992 138.173 37.2541 138.784 37.8093 139.299Z" fill="#1D490E"/>
<path d="M42.2135 139.704C42.7546 137.044 42.3651 133.94 42.6955 131.22C43.0557 128.299 44.3353 125.681 45.0987 122.931C46.5324 117.365 47.6804 111.731 48.5385 106.048C49.1339 102.525 50.1818 98.267 52.0276 95.3897C52.4593 95.3334 52.8855 95.2423 53.3022 95.1173C53.7379 95.7185 51.9803 97.6081 51.6706 98.4575C51.2666 99.8373 50.9487 101.241 50.7185 102.66C50.0391 105.797 49.3583 108.94 48.6056 112.061C47.8274 115.364 47.4831 118.663 46.5666 121.992C45.6501 125.32 44.3962 128.464 43.9851 131.847C43.7175 134.017 43.4847 137.931 42.2135 139.704Z" fill="#BAD740"/>
<path d="M52.5721 92.4876C46.6285 91.124 47.4794 89.163 48.3385 88.0994C51.6663 83.9602 54.6474 63.3888 55.3784 58.5623C55.8244 55.6318 57.0441 49.71 57.8134 44.0934C57.8974 43.4798 57.134 40.94 58.7365 41.3149C59.9356 42.9076 64.051 42.8408 65.8205 42.1548C66.6682 44.692 64.3617 45.6643 63.5893 48.9406C63.0198 51.3444 60.1533 65.8379 59.1491 70.765C58.1851 75.5064 56.6776 82.8863 55.5969 87.4567C54.6317 91.4618 56.7396 93.4388 52.5721 92.4876Z" fill="#9BC221"/>
<path d="M56.8106 54.0472C57.0902 51.6917 57.7025 49.3805 57.9273 47.02C58.0427 46.0593 58.0538 45.0888 57.9604 44.1252C57.8587 43.2075 57.6108 42.2235 58.0945 41.3771L58.1088 41.3108C58.2965 41.2306 58.507 41.2195 58.7024 41.2797C59.9015 42.8723 64.017 42.8056 65.7864 42.1196C65.9925 42.6811 66.0282 43.29 65.8892 43.8706C62.8859 46.2541 60.1483 44.12 59.0688 46.33C58.6316 46.9296 56.2245 67.9793 54.0744 77.3584C53.5506 79.6312 52.8128 81.8493 51.871 83.9836C51.2361 85.4638 50.381 87.3475 50.9354 88.9811C51.2489 89.7966 51.7233 90.5418 52.3305 91.173C52.9378 91.8041 53.6656 92.3083 54.4711 92.6559C53.8179 92.6968 53.1621 92.6252 52.5328 92.4443C50.3306 91.9674 49.0663 91.3534 48.3841 90.7613C48.4066 90.2138 48.4982 89.6716 48.6568 89.1472C49.3171 87.0338 50.4993 85.1237 51.2249 83.0314C52.8038 78.451 53.5728 73.6743 54.4272 68.9231C55.3517 64.0412 56.223 59.0507 56.8106 54.0472Z" fill="#8DAA16"/>
<path d="M65.7993 42.1571C65.8862 42.3938 65.9455 42.6396 65.976 42.8896C64.2198 45.3211 59.6944 43.6676 57.8817 41.5532C58.0288 41.2935 58.2893 41.1555 58.7483 41.2618C59.9201 42.8833 64.0356 42.8165 65.7993 42.1571Z" fill="#D8D7BA"/>
<path d="M49.4233 90.2852C50.761 91.4636 53.3355 92.5766 55.2349 92.0645C55.6421 92.5068 54.4515 93.1654 52.4758 92.675C47.2597 91.3718 47.3738 89.6191 48.0423 88.5003C48.3908 89.173 48.8587 89.7777 49.4233 90.2852Z" fill="#1D490E"/>
<path d="M53.8346 90.5949C54.3224 87.9234 53.867 84.8325 54.1493 82.1096C54.448 79.182 55.6785 76.5325 56.3819 73.7689C57.7026 68.1779 58.7361 62.5229 59.4784 56.8259C60.0018 53.2804 60.9615 49.0102 62.753 46.0935C63.1835 46.03 63.6075 45.929 64.02 45.7916L63.8158 45.9279C64.2663 46.5254 62.7463 48.2859 62.4508 49.1661C62.0783 50.5547 61.7915 51.9649 61.5922 53.3888C60.9529 56.5343 60.3469 59.6869 59.6728 62.8318C58.9547 66.1476 58.6785 69.455 57.8287 72.7979C56.979 76.1408 55.7871 79.354 55.4541 82.6977C55.2267 84.877 55.0701 88.7935 53.8346 90.5949Z" fill="#BAD740"/>
<path d="M49.0128 88.7938C49.2565 89.3756 49.6392 89.8898 50.1276 90.2919C50.4174 90.4659 50.7168 90.6235 51.0244 90.7638C51.2825 90.9446 51.5578 91.0996 51.8464 91.2265C52.1645 91.3336 52.4936 91.4048 52.8274 91.439C53.1564 91.4685 53.351 91.3441 53.6613 91.4599C53.9275 91.573 54.2129 91.6349 54.5021 91.642C54.7806 91.6467 55.0572 91.4984 55.3275 91.5083C55.3689 91.6814 55.3588 91.8625 55.2984 92.0297C55.0768 92.1595 54.8465 92.2743 54.6092 92.3733C54.2726 92.4186 53.9304 92.4033 53.599 92.3281C52.8902 92.2718 52.1921 92.1206 51.5236 91.8786C50.979 91.6856 50.4808 91.3814 50.0612 90.9857C49.8898 90.7515 49.6891 90.5401 49.4639 90.3564C49.1845 90.23 48.9238 90.0661 48.6891 89.8693C48.5281 89.6046 48.3945 89.3244 48.2903 89.0331C48.1104 88.7025 47.8763 88.7837 48.0496 88.4672C48.6174 87.4585 48.7916 88.2669 49.0128 88.7938Z" fill="#D8D7BA"/>
<path d="M41.6182 141.325C40.6464 141.277 39.6937 141.035 38.8169 140.614C38.079 140.266 37.4691 139.697 37.0734 138.987C36.846 138.521 36.2192 137.802 36.4931 137.472C36.5423 137.407 36.5958 137.321 36.6574 137.23C37.0975 137.714 37.3711 138.322 37.8503 138.787C38.4187 139.322 39.0773 139.754 39.7958 140.062C40.1565 140.203 40.5832 140.233 40.9397 140.393C41.3314 140.572 41.7571 140.664 42.1876 140.663C42.3578 140.652 42.459 140.507 42.6478 140.506C42.8523 140.546 43.0524 140.605 43.2451 140.684C43.4119 140.72 43.546 140.52 43.6956 140.733C43.7267 140.796 43.7355 140.868 43.7206 140.937C43.7058 141.005 43.6681 141.067 43.6137 141.111L43.5407 141.158L43.6137 141.111L43.6623 141.08C43.3868 141.611 42.116 141.349 41.6182 141.325Z" fill="#D8D7BA"/>
<path d="M43.5979 141.15L43.6709 141.103C43.6709 141.103 43.6194 141.147 43.5979 141.15Z" fill="#D8D7BA"/>
<path d="M46.2009 42.9044C44.981 41.4476 43.9182 39.8678 43.0299 38.1909C41.4529 34.8917 39.8045 31.4382 38.5307 28.0937C37.9048 26.367 37.179 24.6775 36.3569 23.0338C38.6953 24.8177 40.3212 27.7942 42.1447 30.0845C44.1343 32.5827 45.8366 35.2942 47.2197 38.168C47.9569 39.6676 48.8662 41.1142 49.5347 42.6406C49.931 43.5526 50.8935 46.8506 49.8202 47.4512C49.6948 47.3416 49.5834 47.2172 49.4882 47.0808L49.4021 46.9302L49.4882 47.0808L49.552 47.2057C48.2414 46.0957 47.2452 44.2761 46.2009 42.9044Z" fill="#6DB133"/>
<path d="M49.4752 47.0779C49.4423 47.0302 49.4135 46.9798 49.389 46.9274L49.4752 47.0779Z" fill="#6DB133"/>
<path d="M46.1989 42.8831C44.977 41.4278 43.914 39.8477 43.0279 38.1696C41.4456 34.8623 39.8024 31.4169 38.5287 28.0724C37.9049 26.3434 37.1768 24.6532 36.3482 23.011L36.5216 23.1458C36.5685 23.3256 36.6477 23.4956 36.7553 23.6476C39.7607 27.9643 41.6738 32.9053 43.9719 37.6172C45.211 40.0176 46.6753 42.2967 48.3453 44.4241C48.9523 45.2827 49.3952 46.2447 49.6519 47.262C49.5894 47.2007 49.5339 47.1328 49.4862 47.0595L49.55 47.1844C48.2394 46.0744 47.2475 44.2349 46.1989 42.8831Z" fill="#5F9E24"/>
<path d="M46.2013 42.9044C44.9814 41.4476 43.9185 39.8678 43.0303 38.1909C41.4533 34.8917 39.8049 31.4383 38.5311 28.0937C37.9052 26.367 37.1794 24.6776 36.3573 23.0338C38.6957 24.8177 40.3216 27.7942 42.1451 30.0845C43.9908 32.4013 45.5867 34.9041 46.9065 37.5516C46.6984 37.2219 44.4737 33.6228 42.2986 30.569C40.823 28.458 39.2277 26.4319 37.5207 24.5007C36.0883 23.2116 38.7092 26.7229 40.6141 32.3148C41.7518 35.3844 43.2697 38.3019 45.1327 40.9998C46.1007 42.1514 47.0065 43.3534 47.846 44.6006C48.3939 45.6098 49.0449 46.5605 49.7887 47.4374C49.6782 47.3405 49.5801 47.2306 49.4962 47.1102L49.56 47.2351C48.2418 46.0957 47.2456 44.2761 46.2013 42.9044Z" fill="#82D13E"/>
<path opacity="0.48" d="M46.2247 42.8609C45.0045 41.4043 43.9417 39.8244 43.0537 38.1473L42.7068 37.4265C45.7909 38.6707 48.4507 40.2604 49.6888 43.4792C49.8781 43.9923 50.0541 44.5025 50.2286 45.0194C50.4074 46.0648 50.395 47.0896 49.8455 47.4011L49.7854 47.3881L49.7154 47.3243L49.6416 47.2458C49.5932 47.1957 49.5488 47.142 49.5087 47.0852L49.5477 47.163C48.272 46.0536 47.2743 44.2407 46.2247 42.8609Z" fill="#48602C"/>
<path d="M62.8331 48.3047C65.1785 49.1528 70.1743 52.6023 70.7162 54.3581C70.1002 53.8151 69.4943 53.2256 68.8163 52.7108C67.5746 51.642 66.0893 50.8913 64.4902 50.5242C62.8552 50.2673 61.1877 50.5796 59.5421 50.3065C58.0204 50.0055 56.5849 49.3696 55.3411 48.4455C54.3691 47.8045 52.0575 45.9292 50.9712 47.2353C50.6922 46.2653 52.6147 46.0985 53.3266 46.0375C56.5736 45.7549 59.9096 47.2549 62.8331 48.3047Z" fill="#5F9E24"/>
<path d="M57.6059 47.7627L58.3008 48.0382C57.8203 47.9341 54.7204 46.86 53.816 46.81C53.2702 46.7535 52.7202 46.753 52.1745 46.8085C51.9545 46.7509 51.7211 46.7744 51.5175 46.8745C51.9943 46.6231 52.5291 46.4997 53.0692 46.5163C54.6421 46.6666 56.1774 47.0884 57.6059 47.7627Z" fill="#82D13E"/>
<path d="M62.833 48.3047C64.8166 49.1661 66.6687 50.3012 68.3347 51.6762C66.1139 50.3192 63.747 49.215 61.2787 48.3846C58.4662 47.4353 54.5571 45.936 51.368 46.4673C51.9846 46.2146 52.64 46.0678 53.3065 46.0332C56.5735 45.7549 59.9095 47.2549 62.833 48.3047Z" fill="#6DB133"/>
<path d="M68.3675 51.7181C69.5586 52.6703 70.4945 53.6714 70.7132 54.3714C70.0972 53.8284 69.4913 53.2389 68.8133 52.7241C67.5717 51.6553 66.0863 50.9046 64.4873 50.5375C62.8522 50.2806 61.1847 50.5929 59.5391 50.3198C58.0174 50.0188 56.5819 49.3829 55.3381 48.4588L54.3585 47.7884C55.1798 48.1723 55.9774 48.6046 56.7469 49.0833C58.6555 49.9479 60.3718 50.0558 62.4842 50.1731C64.9096 50.267 67.2374 51.1569 69.1042 52.7038C69.2881 52.8547 69.7495 52.9824 68.3675 51.7181Z" fill="#82D13E"/>
<path opacity="0.48" d="M50.9683 47.2485C50.9343 47.0944 50.9553 46.9334 51.0277 46.7932C51.1002 46.6531 51.2195 46.5425 51.3652 46.4805C51.8321 46.2713 52.3324 46.1447 52.8435 46.1064C55.5473 46.5254 55.7918 47.7516 57.8064 49.514C58.0179 49.6987 58.2347 49.8914 58.4543 50.0709C57.3317 49.6965 56.271 49.1579 55.3072 48.4729L55.1057 48.339L54.3276 47.8025C53.4537 47.2244 52.3539 46.6252 51.5322 46.8708L51.4922 46.8621C51.2836 46.938 51.1017 47.0721 50.9683 47.2485Z" fill="#48602C"/>
<path d="M48.2418 69.9023C47.6121 73.39 47.2049 77.1412 47.7791 80.7161C48.2641 83.7023 49.4668 87.0523 49.6768 89.986C48.3152 89.9827 48.0964 89.3799 48.0827 89.2172C48.094 86.2621 46.4087 84.0434 46.1124 81.1535C45.8066 77.8781 45.8833 74.5794 46.341 71.3235C47.5976 62.5215 48.8927 60.7678 48.095 53.3538C47.8463 51.0505 47.8813 49.3084 49.0394 47.1224L48.9138 47.9283C49.8902 55.2438 49.6632 62.6655 48.2418 69.9023Z" fill="#9BC221"/>
<path d="M47.0726 41.1075C47.5799 41.5715 49.0095 42.8739 48.1961 43.4683C48.1299 41.7739 45.1481 41.864 43.9844 41.7856C42.4335 41.7628 40.9065 41.3942 39.5162 40.7068C38.0428 39.9294 36.9178 38.6722 35.4539 37.883C33.9623 37.1992 32.3248 36.8922 30.687 36.9895C29.8355 36.9855 29.0011 37.0964 28.1743 37.1395C29.6828 36.0777 35.7532 36.3718 38.1282 37.1153C41.0924 38.042 44.675 38.8873 47.0726 41.1075Z" fill="#64B150"/>
<path d="M47.0725 41.1075C47.5827 41.5353 48.013 42.0492 48.3436 42.6256C46.1435 40.2676 42.1241 39.0846 39.3115 38.1353C36.8433 37.3023 34.2889 36.749 31.6972 36.4862C33.8574 36.4204 36.017 36.6545 38.1138 37.1816C41.0923 38.0419 44.6749 38.8873 47.0725 41.1075Z" fill="#83BF5C"/>
<path d="M30.4553 36.8005C32.8774 36.6993 35.2666 37.4023 37.2464 38.7989C38.9936 39.9896 40.4016 40.9402 42.4713 41.4163C43.3794 41.5061 44.2814 41.6504 45.1722 41.8485C44.7122 41.8114 44.2879 41.8027 43.9842 41.7856C42.4332 41.7628 40.9063 41.3942 39.516 40.7068C38.0425 39.9295 36.9175 38.6722 35.4536 37.883C33.962 37.1992 32.3245 36.8922 30.6868 36.9895C29.8353 36.9856 29.0009 37.0964 28.1741 37.1395C28.7829 36.716 30.1208 36.5059 31.6613 36.4576C29.7951 36.6228 30.2302 36.8073 30.4553 36.8005Z" fill="#B2E0A6"/>
<path d="M47.8167 42.7683C47.7291 42.6244 47.1407 42.1151 47.0221 41.9853C46.7703 41.7599 46.4944 41.5628 46.1993 41.3974C45.4488 40.8947 42.3389 39.8671 41.8961 39.6532L42.6082 39.8491C44.1505 40.1933 45.6216 40.8008 46.9561 41.6447C47.157 41.7818 47.3403 41.9428 47.5021 42.1239C47.6544 42.2834 47.7976 42.4512 47.9312 42.6265C48.1979 42.9575 48.3544 43.3627 48.3788 43.7857C48.4634 44.2658 48.4121 44.7594 48.2307 45.2115C48.1686 45.151 48.09 45.1099 48.0048 45.0932C48.0369 44.9491 48.0793 44.8075 48.1315 44.6694C48.1688 44.5004 48.1897 44.3283 48.194 44.1553C48.2225 43.6649 48.0901 43.1782 47.8167 42.7683Z" fill="#9BC221"/>
<path d="M48.5755 46.5221C49.5106 46.3011 50.0423 46.201 50.7074 46.7755C51.4477 47.4218 50.2673 48.3881 49.576 49.4186C48.8381 50.6026 48.161 51.8232 47.5474 53.0755C46.2522 55.5721 45.6219 57.1921 44.2179 59.7067C42.949 62.173 41.0509 64.2635 38.713 65.7697C36.6154 67.0997 34.722 68.939 32.6225 70.3103C35.4099 65.8596 36.8321 60.551 39.8502 56.067C41.1674 54.082 42.3736 51.9966 43.6689 49.9513C44.2638 49.011 46.9628 45.2911 48.5755 46.5221Z" fill="#6DB133"/>
<path d="M35.9815 66.511C37.7632 65.8972 42.2397 62.0345 43.666 60.6425C42.4409 62.7188 40.7365 64.4746 38.693 65.7653C36.5955 67.0953 34.7021 68.9347 32.6026 70.3059C34.1634 67.5892 35.5434 64.7734 36.7337 61.8765C36.7415 61.9934 36.766 62.1085 36.8064 62.2186C36.7764 62.3254 36.7529 62.4339 36.736 62.5435C36.5838 63.6978 34.9399 66.8686 35.9815 66.511Z" fill="#F2E75F"/>
<path d="M48.1084 47.0666C46.1117 47.0923 43.8927 50.4025 42.7199 51.9467C41.9925 52.8861 41.3118 53.8356 40.643 54.7946C41.6852 53.2083 42.6211 51.5642 43.6447 49.9669C44.2639 49.011 46.9629 45.2911 48.5823 46.5235C49.5175 46.3026 50.0491 46.2025 50.7142 46.777C51.4545 47.4233 50.2741 48.3896 49.5828 49.4201C48.8449 50.6041 48.1679 51.8246 47.5542 53.077C46.2948 55.5049 45.6621 57.1036 44.3322 59.5024C45.4928 56.1435 46.7712 52.7894 48.8263 49.8811C50.3238 47.7408 49.615 47.0457 48.1084 47.0666Z" fill="#6AAA2A"/>
<path d="M50.3429 46.523C45.8752 49.603 43.1284 54.0277 40.5029 58.6661C39.3508 60.7742 38.0827 62.8173 36.7043 64.7861C37.7591 62.9804 38.7515 61.1402 39.76 59.3869C42.3443 54.9062 44.5741 49.5781 48.8554 46.423C49.3451 46.2639 49.8782 46.2997 50.3429 46.523Z" fill="#5F9E24"/>
<path d="M33.7772 69.1718C33.898 69.0661 39.4508 64.8464 39.8416 64.4937C41.0834 63.4115 42.2651 62.2629 43.3813 61.053C42.1885 62.9551 40.5792 64.5643 38.6729 65.761C36.5753 67.091 34.6819 68.9304 32.5824 70.3016C34.9324 66.5477 36.338 62.1866 38.5104 58.2207C38.4068 58.4413 38.3098 58.6633 38.2133 58.8506C37.4265 60.5478 36.3181 63.6334 35.6286 65.3655C35.0575 66.8734 32.749 70.0808 33.7772 69.1718Z" fill="#E8C325"/>
<path opacity="0.48" d="M47.7507 47.8153C48.0528 47.3878 48.3564 46.9536 48.6453 46.5233L48.8737 46.4686L48.9538 46.486L49.1283 46.4543L49.2451 46.431L49.3805 46.4187L49.5789 46.4061L49.6656 46.4249L49.7924 46.4524L49.8592 46.4668C49.9567 46.4776 50.0529 46.4984 50.1461 46.529L50.2858 46.5939C50.4178 46.6619 50.5404 46.7468 50.6502 46.8464C51.3906 47.4928 50.2102 48.459 49.5203 49.4829C49.0039 50.2795 48.5336 51.1049 48.1116 51.9549C48.3102 51.0983 48.4156 50.2226 48.4258 49.3431C48.4405 49.054 48.3871 48.7654 48.2699 48.5002C48.1526 48.235 47.9749 48.0004 47.7507 47.8153Z" fill="#48602C"/>
<path opacity="0.48" d="M42.6274 51.5656L42.6403 51.5059C42.9598 50.9989 43.2725 50.4904 43.5905 49.9899C44.2097 49.034 46.9087 45.3141 48.5281 46.5465L48.829 46.4798L48.9243 46.4588L49.0989 46.4272L49.2143 46.4105L49.3511 46.3915L49.5495 46.3789L49.6362 46.3977L49.763 46.4252L49.8564 46.4454C48.8655 47.7305 47.8354 48.9815 46.766 50.1986C45.8933 51.0024 45.0673 51.8163 44.2451 52.645C42.1703 54.8431 40.2382 57.1702 38.4604 59.6123C37.8967 60.3442 37.3196 61.0732 36.744 61.7955C37.2862 60.6147 37.8484 59.4381 38.473 58.2959C38.8761 57.564 39.2991 56.8364 39.7727 56.1336L40.592 54.8669C41.3291 53.7214 41.9919 52.6291 42.6274 51.5656Z" fill="#48602C"/>
<path d="M45.8506 44.7169L45.6842 44.7433L45.8506 44.7169Z" fill="#6DB133"/>
<path d="M40.8786 46.4797C39.1174 47.1748 37.2864 47.6813 35.4163 47.9905C31.8225 48.4549 28.0185 48.9224 24.4545 49.0878C22.6242 49.1361 20.7987 49.2925 18.9875 49.5561C21.4362 47.9273 24.7374 47.3301 27.4754 46.3332C30.4596 45.2453 33.5584 44.4958 36.7133 44.0988C38.3703 43.8676 40.0236 43.4272 41.6695 43.3115C42.6522 43.2258 46.0767 43.3496 46.2964 44.5288C46.1521 44.6113 45.9994 44.6784 45.8409 44.7288L45.6744 44.7552L45.8409 44.7288L45.9792 44.7032C44.5366 45.5571 42.5001 45.9283 40.8786 46.4797Z" fill="#6DB133"/>
<path d="M40.8519 46.4739C39.0918 47.172 37.2604 47.6785 35.3897 47.9847C31.7959 48.4491 27.9985 48.918 24.4279 49.082C22.5999 49.133 20.7767 49.2899 18.9676 49.5517C19.0244 49.5154 19.0878 49.4806 19.146 49.4377C19.3299 49.4489 19.5142 49.4277 19.6905 49.3751C24.7184 47.9021 29.9935 47.6422 35.1599 46.949C37.8218 46.5397 40.4377 45.8788 42.972 44.9752C43.9744 44.6713 45.0253 44.5552 46.0713 44.6328C45.9918 44.6682 45.9105 44.6992 45.8276 44.7258L45.9659 44.7002C44.5152 45.5594 42.4534 45.9182 40.8519 46.4739Z" fill="#5F9E24"/>
<path d="M40.8786 46.4797C39.1174 47.1748 37.2864 47.6812 35.4163 47.9905C31.8226 48.4549 28.0185 48.9224 24.4545 49.0878C22.6242 49.1361 20.7987 49.2924 18.9875 49.5561C21.4362 47.9272 24.7374 47.33 27.4754 46.3331C30.2433 45.3259 33.11 44.6088 36.0291 44.1936C35.6528 44.2857 31.5523 45.2513 27.9774 46.3377C25.518 47.0672 23.1025 47.9348 20.7426 48.9364C19.0711 49.8797 23.2164 48.5141 29.0964 48.4616C32.3533 48.3372 35.5811 47.8119 38.706 46.8978C40.0442 46.4934 41.5743 45.7834 42.9481 45.5046C44.0794 45.306 45.1868 44.9921 46.2529 44.568C46.1229 44.6394 45.9861 44.6982 45.8447 44.7434L45.9829 44.7179C44.5366 45.5571 42.5001 45.9283 40.8786 46.4797Z" fill="#82D13E"/>
<path d="M19.1491 49.4244C21.0888 48.1782 23.5642 47.5549 25.8562 46.8433C25.8562 46.8433 19.7878 49.0559 23.6399 48.7863C27.2292 48.5361 34.4482 47.6558 37.959 47.1873L39.4028 46.9723C38.1018 47.4489 36.7543 47.7899 35.3818 47.9899C31.7881 48.4543 27.984 48.9218 24.4201 49.0872C22.5897 49.1355 20.7642 49.2918 18.953 49.5555C19.0275 49.5022 19.0909 49.4673 19.1491 49.4244Z" fill="#F2E75F"/>
<path d="M19.149 49.4244C19.544 49.1757 19.9542 48.9515 20.3772 48.7531C20.5719 48.9094 20.7967 49.0242 21.0377 49.0906C21.4092 49.1882 21.7928 49.2316 22.1766 49.2192C21.099 49.2913 20.041 49.4024 18.9929 49.5642C19.0273 49.5022 19.0908 49.4673 19.149 49.4244Z" fill="#E8C325"/>
<path opacity="0.48" d="M38.9609 47.1405C39.785 46.4332 40.6584 45.7848 41.5749 45.2003C42.7382 44.5447 43.9776 44.0321 45.2659 43.6739C45.8269 43.8579 46.2433 44.1286 46.3126 44.5185L46.2726 44.5098L46.108 44.5922L46.0746 44.585L45.9158 44.6408L45.9892 44.6567L46.0293 44.6654C44.5706 45.5297 42.534 45.9009 40.9125 46.4523L39.4779 46.947L38.9609 47.1405Z" fill="#48602C"/>
<path d="M47.4923 44.7809C48.4462 44.925 48.9934 45.0435 49.3665 45.8047C49.7396 46.5659 48.3789 47.139 47.3204 47.8332C46.1914 48.6558 45.1055 49.5352 44.0669 50.468C41.9246 52.2951 40.7277 53.5633 38.4839 55.3754C36.3756 57.1948 33.8191 58.4256 31.0741 58.9429C28.6294 59.3924 26.1831 60.3969 23.715 60.8899C27.9753 57.7997 31.3199 53.4211 35.7737 50.3728C37.7497 49.0235 39.65 47.5397 41.5812 46.1389C42.5482 45.4805 46.4574 43.0433 47.4923 44.7809Z" fill="#80B17D"/>
<path d="M46.8223 45.1009C44.965 44.3863 41.669 46.637 39.9875 47.6267C38.9664 48.234 37.9695 48.8582 36.997 49.4992C38.5355 48.3953 40.0427 47.2429 41.5946 46.1418C42.5282 45.4762 46.4604 43.03 47.4791 44.778C48.433 44.9221 48.9802 45.0406 49.3533 45.8018C49.7264 46.563 48.3657 47.1362 47.3071 47.8303C46.1781 48.6529 45.0923 49.5323 44.0537 50.4651C41.971 52.2427 40.777 53.4976 38.6495 55.2238C40.9838 52.5426 43.4339 49.9074 46.4307 47.9737C48.6579 46.5607 48.2616 45.6487 46.8223 45.1009Z" fill="#6DAA66"/>
<path d="M47.8021 44.8341C48.3061 44.8574 48.7823 45.0724 49.1322 45.4346C43.8352 46.6341 39.6364 49.7307 35.4331 53.0415C33.5738 54.5778 31.6308 56.0112 29.6127 57.3351C31.2878 56.0525 32.8847 54.7113 34.4816 53.4672C38.5508 50.2593 42.6199 46.1487 47.8021 44.8341Z" fill="#5E9E59"/>
<path d="M25.2476 60.2984C25.3983 60.2477 32.1376 58.3887 32.6303 58.2107C34.1957 57.6771 35.7295 57.0566 37.2246 56.3523C35.3969 57.6703 33.2936 58.5625 31.0701 58.9628C28.6254 59.4123 26.1791 60.4168 23.711 60.9098C27.3081 58.3008 30.2505 54.7794 33.7564 51.9146L33.2215 52.4166C31.8611 53.698 29.6681 56.1459 28.3763 57.4977C27.2935 58.6587 23.9562 60.713 25.2476 60.2984Z" fill="#F2E75F"/>
<path d="M52.1309 46.8478C53.7858 45.658 56.3989 49.4314 56.9911 50.4067C58.2503 52.4637 59.4136 54.5763 60.6948 56.5964C63.5923 61.1535 64.9371 66.4922 67.6411 71.0073C65.5651 69.5927 63.7103 67.7052 61.6672 66.3324C59.3514 64.7717 57.487 62.6345 56.2605 60.1349C54.9055 57.5851 54.3096 55.9494 53.0599 53.4293C52.4629 52.1571 51.7986 50.9171 51.0699 49.7144C50.3957 48.6659 49.2333 47.6782 49.9857 47.0427C50.7381 46.4073 51.1985 46.6042 52.1309 46.8478Z" fill="#6DB133"/>
<path d="M56.1244 59.9249C54.8479 57.4962 54.2491 55.8738 53.0332 53.4235C52.4362 52.1513 51.7719 50.9113 51.0432 49.7086C50.369 48.6601 49.2066 47.6724 49.959 47.0369C50.7115 46.4015 51.1637 46.6036 52.1047 46.8074C53.7596 45.6176 56.3727 49.391 56.9649 50.3663C57.9656 51.9716 58.8943 53.6515 59.8774 55.2738C59.2303 54.2936 58.5604 53.3223 57.858 52.3718C56.7042 50.7958 54.5552 47.4284 52.5652 47.3584C51.0544 47.302 50.3348 47.9792 51.7999 50.1502C53.8258 53.1509 55.0347 56.5369 56.1244 59.9249Z" fill="#6AAA2A"/>
<path d="M60.6968 59.9431C61.7069 61.731 62.6316 63.5905 63.6487 65.4424C62.3087 63.4307 61.0806 61.3476 59.9699 59.2026C57.4082 54.4821 54.7653 50.0079 50.3628 46.8189C50.8278 46.6266 51.349 46.6156 51.8227 46.7879C56.0759 50.021 58.2007 55.4035 60.6968 59.9431Z" fill="#5F9E24"/>
<path d="M62.2405 59.4583L61.9465 58.7837C64.0445 62.8066 65.363 67.2023 67.6409 71.0073C65.5649 69.5927 63.7101 67.7052 61.667 66.3324C59.7865 65.0863 58.2099 63.4377 57.053 61.5077C58.1472 62.748 59.31 63.927 60.5359 65.0391C60.927 65.3945 66.3843 69.7771 66.5101 69.8737C67.5277 70.7884 65.2793 67.5244 64.7171 66.0557C64.0388 64.2842 62.988 61.1685 62.2405 59.4583Z" fill="#82D13E"/>
<path d="M55.3651 106.27C56.6776 105.242 58.1654 104.405 59.536 103.431C62.1176 101.559 64.9033 99.983 67.8407 98.7312C70.5354 97.5791 73.3738 95.7639 76.2744 95.2744C74.7674 96.3286 73.3236 97.4694 71.9504 98.6909C69.2355 101.033 66.1484 103.287 63.1819 105.436C61.6006 106.493 59.9098 107.379 58.1382 108.078C56.5881 108.784 54.8269 109.916 53.1559 110.276L53.2724 110.19L53.4183 110.097L53.2724 110.19C53.1236 110.266 52.9658 110.323 52.8026 110.359C52.1671 109.326 54.5836 106.878 55.3651 106.27Z" fill="#6DB133"/>
<path d="M53.2925 110.195C53.3461 110.172 53.3954 110.14 53.4385 110.101L53.2925 110.195Z" fill="#6DB133"/>
<path d="M55.567 108.403C58.0488 107.324 60.4217 106.013 62.6538 104.488C66.9121 101.439 70.9472 98.0015 75.6455 95.631C75.8129 95.549 75.9645 95.4385 76.0935 95.3045L76.3057 95.2602C74.7968 96.315 73.3524 97.4582 71.9802 98.6835C69.2734 101.02 66.1796 103.273 63.2184 105.43C61.6349 106.481 59.945 107.364 58.1761 108.066C56.6246 108.778 54.8581 109.902 53.1872 110.262L53.3103 110.178C53.2328 110.22 53.1505 110.254 53.0651 110.277C53.7734 109.502 54.6221 108.867 55.567 108.403Z" fill="#5F9E24"/>
<path d="M55.9417 108.769C57.2672 108.068 58.6283 107.436 60.0197 106.875C62.9395 105.394 65.6626 103.559 68.1268 101.411C72.489 97.3982 76.4401 95.574 74.5646 96.0079C72.1464 96.8937 69.7814 97.916 67.4809 99.0698C64.1187 100.723 60.442 102.829 60.1057 103.027C62.5252 101.324 65.1188 99.8801 67.8436 98.7179C70.5384 97.5659 73.3767 95.7507 76.2773 95.2611C74.7703 96.3154 73.3265 97.4562 71.9533 98.6777C69.2384 101.02 66.1513 103.274 63.1848 105.422C61.6035 106.48 59.9127 107.366 58.1411 108.065C56.591 108.771 54.8298 109.903 53.1589 110.263L53.2753 110.177C53.1437 110.246 53.0034 110.298 52.858 110.33C53.9398 109.922 54.9738 109.399 55.9417 108.769Z" fill="#82D13E"/>
<path opacity="0.48" d="M53.6149 108.029C54.0166 107.658 54.417 107.293 54.8292 106.938C57.4477 104.687 60.544 104.552 63.8457 104.92L63.2055 105.392C61.6223 106.447 59.9297 107.33 58.1565 108.027C56.605 108.739 54.8452 109.865 53.1743 110.225L53.2406 110.177C53.1787 110.206 53.1148 110.232 53.0493 110.253L52.9511 110.287L52.8624 110.31L52.7957 110.295C52.4834 109.77 52.9652 108.867 53.6149 108.029Z" fill="#48602C"/>
<path d="M50.4164 107.475C50.9905 107.856 52.6058 108.914 51.8976 109.636C51.5592 107.973 48.6457 108.522 47.4765 108.63C45.9422 108.849 44.377 108.724 42.8961 108.263C41.3214 107.727 40.0022 106.657 38.4703 106.117C36.8849 105.674 35.2152 105.628 33.6094 105.98C32.7706 106.111 31.9709 106.32 31.1578 106.526C32.4753 105.249 38.5089 104.584 40.9739 104.944C44.0348 105.392 47.6795 105.66 50.4164 107.475Z" fill="#5F9E24"/>
<path d="M50.3879 108.024C50.8609 108.256 51.2666 108.605 51.566 109.036C51.4349 108.854 51.2416 108.726 51.0223 108.676C50.5657 108.367 50.0799 108.104 49.5718 107.889C48.7526 107.511 45.5144 107.011 45.0482 106.84L45.7833 106.93C47.3705 107.021 48.9295 107.392 50.3879 108.024Z" fill="#82D13E"/>
<path d="M50.4163 107.475C50.9881 107.818 51.4959 108.257 51.9169 108.772C49.3633 106.789 45.2111 106.251 42.2876 105.749C39.7118 105.306 37.0948 105.151 34.4858 105.289C36.6051 104.873 38.7731 104.754 40.9271 104.934C44.0348 105.392 47.6794 105.66 50.4163 107.475Z" fill="#6DB133"/>
<path d="M33.3489 105.827C35.7258 105.346 38.1981 105.667 40.3756 106.738C42.277 107.636 43.8263 108.353 45.9449 108.506C46.8498 108.448 47.7577 108.448 48.663 108.505C48.2005 108.544 47.7766 108.598 47.4762 108.63C45.9419 108.849 44.3767 108.724 42.8958 108.263C41.321 107.727 40.0018 106.657 38.47 106.117C36.8846 105.674 35.2149 105.628 33.609 105.98C32.7703 106.111 31.9706 106.32 31.1575 106.526C31.6872 106.015 32.972 105.599 34.4879 105.31C32.6443 105.758 33.1167 105.867 33.3489 105.827Z" fill="#82D13E"/>
<path opacity="0.48" d="M47.7389 108.61L47.4963 108.634C46.3217 108.783 45.131 108.759 43.9625 108.563L44.8061 108.378C47.4069 107.788 48.2297 106.828 50.791 107.744C51.2164 108.019 51.5906 108.365 51.8967 108.768C51.9948 108.892 52.0466 109.046 52.043 109.203C52.0395 109.361 51.9809 109.512 51.8773 109.631C51.8328 109.406 51.7255 109.198 51.5675 109.03C50.9577 108.426 49.7058 108.432 48.6654 108.526C48.3145 108.533 47.9845 108.573 47.7389 108.61Z" fill="#48602C"/>
<path d="M53.6374 110.408C53.6185 112.883 52.8291 114.399 51.5005 116.34C47.2718 122.478 47.604 124.653 44.4947 132.978C43.5157 135.612 42.2859 138.147 40.822 140.548C40.3617 140.254 39.9177 139.95 39.4603 139.642C41.2157 136.919 42.5799 133.964 43.5135 130.863C45.7021 123.81 49.0298 117.161 53.3664 111.176L53.6374 110.408Z" fill="#5E9E59"/>
<path d="M68.0153 106.829C70.4626 107.304 75.9363 109.933 76.7678 111.578C76.0659 111.142 75.3769 110.645 74.6316 110.248C73.2367 109.385 71.6502 108.877 70.0126 108.769C68.3497 108.769 66.7587 109.341 65.0919 109.327C63.5434 109.267 62.0268 108.865 60.6519 108.151C59.5906 107.664 57.007 106.174 56.146 107.633C55.7149 106.72 57.5895 106.259 58.2561 106.084C61.4331 105.286 64.9646 106.238 68.0153 106.829Z" fill="#64B150"/>
<path d="M68.0149 106.829C70.1083 107.371 72.1154 108.203 73.977 109.301C71.5703 108.308 69.0595 107.587 66.4919 107.152C63.5669 106.658 59.4732 105.785 56.4067 106.815C56.9726 106.465 57.5963 106.217 58.2491 106.082C61.4327 105.286 64.9642 106.238 68.0149 106.829Z" fill="#83BF5C"/>
<path d="M74.0209 109.324C75.3551 110.099 76.429 110.915 76.7607 111.577C76.0589 111.14 75.3699 110.644 74.6246 110.247C73.2297 109.384 71.6432 108.876 70.0056 108.767C68.3427 108.768 66.7517 109.34 65.0849 109.326C63.5363 109.265 62.0198 108.864 60.6449 108.149C60.3642 108.026 60.0149 107.832 59.5679 107.638C60.4407 107.885 61.2971 108.187 62.1321 108.541C64.1764 109.102 65.8686 108.933 67.9699 108.715C70.3802 108.44 72.8164 108.968 74.8969 110.215C75.1085 110.303 75.5871 110.351 74.0209 109.324Z" fill="#B2E0A6"/>
<path d="M55.4972 109.145C55.4166 109.116 55.3286 109.114 55.2469 109.139C55.301 108.653 55.4904 108.191 55.794 107.807C56.0265 107.446 56.368 107.167 56.7697 107.011C56.958 106.948 57.1875 106.824 57.3797 106.775C57.6049 106.69 57.8401 106.634 58.0797 106.608C59.6557 106.499 61.2393 106.664 62.7601 107.094C63.0004 107.146 63.2473 107.199 63.4875 107.251C62.9936 107.242 59.7674 106.654 58.8677 106.744C58.5307 106.751 58.1955 106.795 57.8682 106.874C57.7028 106.929 56.9331 107.095 56.7886 107.182C56.344 107.408 55.9857 107.771 55.7678 108.218C55.6928 108.373 55.63 108.533 55.58 108.698C55.5628 108.848 55.5351 108.998 55.4972 109.145Z" fill="#9BC221"/>
<path d="M54.3525 110.14C56.3562 109.824 56.9642 114.371 57.0466 115.507C57.2257 117.906 57.2921 120.309 57.5036 122.687C57.9979 128.05 56.7478 133.403 57.0859 138.648C55.8864 136.445 55.1054 133.922 53.8825 131.762C52.535 129.324 51.855 126.579 51.9106 123.802C51.8765 120.927 52.0907 119.196 52.1199 116.384C52.1792 114.993 52.1662 113.6 52.0808 112.21C51.957 110.975 51.3818 109.566 52.337 109.349C53.2101 109.156 53.627 109.49 54.3525 110.14Z" fill="#6DB133"/>
<path d="M57.1118 129.851C57.1362 129.738 57.1592 129.632 57.217 129.526C57.3056 129.451 57.3815 129.362 57.4418 129.263C57.1094 132.378 56.9838 135.512 57.0657 138.644C55.8663 136.44 55.0852 133.918 53.8624 131.757C52.6811 129.648 52.0182 127.292 51.9281 124.882C52.5214 126.788 54.6228 132.311 55.9012 133.699C56.6618 134.509 56.7223 130.94 57.1118 129.851Z" fill="#F2E75F"/>
<path d="M51.9113 123.573C51.8899 120.833 52.0931 119.12 52.1333 116.387C52.1926 114.996 52.1795 113.602 52.0941 112.212C51.9703 110.978 51.3952 109.569 52.3503 109.352C53.1887 109.159 53.6241 109.503 54.3511 110.146C56.3547 109.83 56.9628 114.378 57.0452 115.513C57.1875 117.405 57.2587 119.302 57.3876 121.19C57.2619 120.029 57.1067 118.864 56.9221 117.694C56.6383 115.779 56.2399 111.812 54.5016 110.838C53.1854 110.109 52.2307 110.388 52.5421 112.983C52.967 116.505 52.4889 120.067 51.9113 123.573Z" fill="#6AAA2A"/>
<path d="M55.9724 125.66C56.0297 127.686 56.0245 129.775 56.0941 131.873C55.824 129.477 55.6832 127.068 55.6724 124.658C55.5499 119.32 55.2509 114.153 52.7957 109.296C53.2998 109.337 53.771 109.563 54.1186 109.929C56.407 114.75 55.834 120.493 55.9724 125.66Z" fill="#5F9E24"/>
<path d="M57.5695 125.93C57.5879 125.684 57.6048 125.445 57.615 125.204C57.6424 129.723 56.7997 134.226 57.0856 138.648C55.8861 136.445 55.1051 133.922 53.8822 131.762C52.7813 129.802 52.1314 127.624 51.9795 125.386C52.3972 126.979 52.8988 128.55 53.4823 130.092C53.6626 130.582 56.5322 136.946 56.585 137.089C57.0601 138.379 56.5525 134.465 56.7404 132.888C56.959 131.04 57.4525 127.793 57.5695 125.93Z" fill="#E8C325"/>
<path opacity="0.48" d="M52.8191 109.315L52.966 109.347C53.0657 109.358 53.1641 109.379 53.2596 109.41L53.3196 109.423L53.4464 109.451L53.5332 109.469L53.699 109.575L53.8143 109.655L53.9044 109.723C53.9527 109.757 53.9982 109.795 54.0406 109.836L54.1121 109.893L54.2945 110.051C54.3432 110.568 54.4052 111.088 54.4672 111.609C54.1849 111.656 53.9172 111.766 53.6843 111.93C53.4513 112.095 53.2591 112.311 53.1223 112.56C52.7156 113.341 52.3926 114.162 52.1585 115.01C52.1801 114.062 52.1525 113.113 52.0757 112.167C51.9519 110.932 51.3767 109.523 52.3333 109.3C52.4788 109.27 52.6271 109.255 52.7758 109.257L52.8191 109.315Z" fill="#48602C"/>
<path opacity="0.48" d="M57.6201 125.212C57.6252 126.511 57.5592 127.816 57.4746 129.11C57.3152 128.201 57.1706 127.288 57.006 126.37C56.6021 123.372 56.0112 120.401 55.2366 117.475C54.901 116.347 54.533 115.24 54.1826 114.116C53.8211 112.538 53.511 110.948 53.2525 109.346L53.3392 109.365L53.466 109.392L53.5528 109.411L53.7186 109.517L53.8339 109.597L53.924 109.665L54.0602 109.778L54.1317 109.835L54.3656 110.045C56.3692 109.73 56.9773 114.277 57.0597 115.412C57.1059 116.006 57.1373 116.603 57.1754 117.201C57.1754 117.201 57.1668 117.241 57.1625 117.261C57.2347 118.54 57.307 119.819 57.3888 121.087C57.4203 121.586 57.457 122.094 57.5019 122.597C57.5793 123.433 57.6138 124.273 57.6135 125.113L57.6201 125.212Z" fill="#48602C"/>
<path d="M57.6105 109.839L57.7415 109.943C57.6924 109.916 57.6482 109.88 57.6105 109.839Z" fill="#6DB133"/>
<path d="M61.9788 110.604C63.3659 111.522 64.6211 112.662 65.9656 113.648C68.5493 115.499 70.9183 117.631 73.0289 120.003C74.9679 122.179 77.6068 124.285 78.9599 126.876C77.4943 125.783 75.9648 124.777 74.3794 123.864C71.316 122.041 68.218 119.828 65.2311 117.717C63.7371 116.553 62.3689 115.237 61.1488 113.792C60.0224 112.541 58.3677 111.245 57.5028 109.787L57.6166 109.875C57.6543 109.916 57.6986 109.952 57.7476 109.979C57.6986 109.952 57.6543 109.916 57.6166 109.875C57.4983 109.757 57.3954 109.625 57.3104 109.482C58.0651 108.514 61.1317 110.032 61.9788 110.604Z" fill="#6DB133"/>
<path d="M60.02 111.423C61.8207 113.421 63.8068 115.246 65.9518 116.873C70.1794 119.934 74.6876 122.667 78.4025 126.353C78.5375 126.48 78.6913 126.586 78.8585 126.667L78.9642 126.856C77.4976 125.762 75.9652 124.757 74.3756 123.849C71.2802 122.012 68.2157 119.807 65.2273 117.702C63.7291 116.543 62.3604 115.227 61.145 113.777C59.9771 112.524 58.3572 111.229 57.4923 109.771L57.6047 109.865C57.5416 109.802 57.484 109.734 57.4323 109.661C58.395 110.087 59.272 110.684 60.02 111.423Z" fill="#5F9E24"/>
<path d="M59.7935 111.887C60.8702 112.916 61.8925 114 62.8562 115.133C65.176 117.418 67.7688 119.412 70.5763 121.068C75.7242 123.912 78.7198 127.081 77.6952 125.457C76.0917 123.46 74.3772 121.555 72.5599 119.748C69.9344 117.097 66.7569 114.284 66.4968 114.034C68.8698 115.783 71.0517 117.775 73.0064 119.977C74.9454 122.153 77.5843 124.259 78.9374 126.85C77.4718 125.757 75.9423 124.751 74.357 123.838C71.2935 122.015 68.1956 119.803 65.2086 117.691C63.7146 116.527 62.3465 115.212 61.1263 113.766C59.9999 112.515 58.3452 111.22 57.4803 109.762L57.5941 109.849C57.4863 109.748 57.3938 109.632 57.3193 109.505C58.0576 110.383 58.8869 111.182 59.7935 111.887Z" fill="#82D13E"/>
<path d="M74.3569 123.838C71.2934 122.015 68.1955 119.803 65.2085 117.691C64.0991 116.859 63.0762 115.919 62.1555 114.885L63.329 115.757C66.1929 117.856 72.1325 122.044 75.173 123.973C78.4493 126.071 74.1437 121.209 74.1437 121.209C75.8204 122.919 77.6963 124.645 78.8168 126.665L78.9225 126.854L78.8891 126.847C77.439 125.756 75.9257 124.752 74.3569 123.838Z" fill="#F2E75F"/>
<path d="M76.3196 125.034C76.6322 125.229 76.972 125.378 77.328 125.474C77.5697 125.535 77.822 125.54 78.0656 125.488C78.3425 125.867 78.5978 126.26 78.8302 126.667L78.9358 126.857L78.9025 126.85C78.0727 126.202 77.2106 125.595 76.3196 125.034Z" fill="#E8C325"/>
<path opacity="0.48" d="M58.6188 109.182C59.5789 110.114 60.4252 111.155 61.14 112.283C61.6694 113.233 62.1305 114.22 62.52 115.234L62.168 114.859L61.1387 113.741C59.9722 112.482 58.3591 111.188 57.486 109.735L57.526 109.744L57.5923 109.793L57.4789 109.671L57.4455 109.664L57.346 109.511L57.3146 109.462C57.5442 109.144 58.0363 109.098 58.6188 109.182Z" fill="#48602C"/>
<path d="M56.132 109.116C57.8674 108.103 60.1456 112.068 60.6472 113.107C61.7093 115.267 62.6704 117.475 63.7679 119.601C66.2213 124.402 67.0908 129.839 69.3683 134.581C67.4303 132.981 65.7573 130.932 63.8173 129.373C61.6421 127.612 59.9712 125.312 58.9732 122.707C57.858 120.05 57.4114 118.37 56.3949 115.741C55.9275 114.426 55.3932 113.135 54.7941 111.874C54.2158 110.77 53.1727 109.683 53.9522 109.116C54.7318 108.549 55.2236 108.794 56.132 109.116Z" fill="#80B17D"/>
<path d="M58.9132 122.5C57.8619 119.967 57.4124 118.301 56.4288 115.713C55.9613 114.398 55.427 113.108 54.8279 111.846C54.2496 110.742 53.2065 109.655 53.9861 109.088C54.7656 108.521 55.2307 108.761 56.1391 109.083C57.8745 108.07 60.1527 112.035 60.6543 113.074C61.4943 114.776 62.2708 116.513 63.1041 118.214C62.5448 117.184 61.9693 116.163 61.3576 115.149C60.3245 113.467 58.5193 109.931 56.5415 109.677C55.046 109.485 54.2645 110.093 55.5283 112.387C57.2399 115.549 58.1354 119.027 58.9132 122.5Z" fill="#6DAA66"/>
<path d="M63.4647 122.937C64.2783 124.793 65.0489 126.751 65.9087 128.652C64.7555 126.532 63.7214 124.349 62.8113 122.115C60.6889 117.205 58.47 112.483 54.3731 108.915C54.8541 108.762 55.3762 108.799 55.8323 109.016C59.7638 112.638 61.3908 118.19 63.4647 122.937Z" fill="#5E9E59"/>
<path d="M65.0417 122.591L64.8149 121.896C66.5341 126.087 67.4483 130.576 69.3685 134.581C67.4304 132.981 65.7574 130.932 63.8174 129.373C62.0596 127.961 60.6391 126.178 59.659 124.154C60.641 125.485 61.6964 126.761 62.8203 127.977C63.1709 128.358 68.2145 133.199 68.3183 133.333C69.2433 134.353 67.3069 130.906 66.8835 129.377C66.4031 127.531 65.6355 124.365 65.0417 122.591Z" fill="#F2E75F"/>
<path d="M38.897 113.242C40.9867 112.077 43.0103 110.766 45.0954 109.558C46.0799 108.98 50.1901 106.906 51.0671 108.727C52.008 108.931 52.5395 109.122 52.8491 109.918C53.1588 110.714 51.7224 111.153 50.6276 111.756C49.4278 112.472 48.2661 113.25 47.1471 114.085C44.8443 115.718 43.5393 116.872 41.1407 118.463C38.8729 120.083 36.2137 121.078 33.4317 121.348C30.9513 121.574 28.4228 122.346 25.9258 122.617C30.4479 119.931 34.1775 115.872 38.897 113.242Z" fill="#6DB133"/>
<path d="M50.4007 108.999C48.6141 108.119 45.1272 110.058 43.361 110.89C42.2864 111.4 41.2356 111.93 40.2191 112.494C41.8267 111.523 43.4443 110.506 45.109 109.561C46.0936 108.983 50.2038 106.908 51.0808 108.73C52.0217 108.934 52.5531 109.125 52.8628 109.921C53.1725 110.717 51.7361 111.156 50.6413 111.759C49.4415 112.475 48.2798 113.252 47.1608 114.088C44.9214 115.686 43.6265 116.794 41.349 118.342C43.9224 115.879 46.594 113.479 49.7459 111.829C52.0655 110.602 51.7512 109.667 50.4007 108.999Z" fill="#6AAA2A"/>
<path d="M37.2956 116.186C41.6562 113.375 46.0892 109.648 51.3687 108.82C51.8572 108.897 52.3001 109.151 52.6115 109.533C47.2239 110.248 42.787 112.96 38.2723 115.87C36.2716 117.226 34.1986 118.473 32.0624 119.607C33.8651 118.477 35.5911 117.282 37.2956 116.186Z" fill="#5F9E24"/>
<path d="M27.4938 122.152C27.6497 122.109 34.5281 120.898 35.0446 120.739C36.6501 120.346 38.2327 119.866 39.7854 119.301C37.8492 120.447 35.678 121.147 33.4316 121.348C30.9513 121.574 28.4228 122.346 25.9258 122.617C29.7429 120.348 32.993 117.115 36.7556 114.549L36.1759 115C34.705 116.146 32.2982 118.388 30.8863 119.616C29.683 120.689 26.1552 122.494 27.4938 122.152Z" fill="#82D13E"/>
<path d="M67.8821 28.5075C68.4458 29.3239 68.475 30.8021 68.8197 31.4044C69.1643 32.0066 69.9186 31.8784 70.0393 32.4183C70.2103 33.1703 70.221 33.9491 70.0707 34.7046C69.9203 35.4601 69.6121 36.1755 69.1662 36.8045C68.3511 37.6971 67.5402 37.5701 67.6581 36.3807C67.7341 35.5779 68.4113 34.8706 68.5689 34.0785C68.7613 33.1899 68.3307 32.2427 68.2848 31.358C68.2388 30.4732 68.4615 29.4453 67.8821 28.5075Z" fill="#5F8E29"/>
<path d="M69.8181 33.6966C69.9564 33.4128 70.061 33.1139 70.1297 32.806C70.3312 34.2125 69.9918 35.6414 69.1793 36.8074C68.3642 37.7 67.5533 37.573 67.6712 36.3836C67.7122 36.0772 67.8072 35.7804 67.9518 35.5071C68.0654 35.4344 68.1708 35.367 68.2629 35.2967C68.9076 34.9008 69.4422 34.3508 69.8181 33.6966Z" fill="#5C8021"/>
<path d="M69.1322 38.4773C70.3224 38.3046 72.6029 38.0973 73.8191 38.7078C71.8464 40.1065 69.4415 42.3072 67.2005 43.1063C63.1371 44.5451 67.9304 37.8004 69.1322 38.4773Z" fill="#5F8E29"/>
<path d="M68.982 42.2355C68.4195 42.5851 67.8226 42.8769 67.2005 43.1063C63.1372 44.5451 67.9304 37.8004 69.1322 38.4773L69.5347 38.4256C69.1841 38.7085 68.904 39.0682 68.7162 39.4766C68.5284 39.8851 68.4379 40.3313 68.4517 40.7806C68.4971 41.3031 68.68 41.8049 68.982 42.2355Z" fill="#5C8021"/>
<path d="M68.2748 42.6308C67.9287 42.8088 67.5708 42.9632 67.2036 43.093C63.6773 44.3427 66.825 39.4216 68.5021 38.549C68.1355 38.8555 67.8209 39.2188 67.5705 39.6248C67.2866 40.1211 67.2014 40.7061 67.3319 41.2631C67.4625 41.8202 67.7991 42.3085 68.2748 42.6308Z" fill="#52731A"/>
<path d="M69.8514 34.7382C71.1665 34.1401 72.5646 33.7408 73.9993 33.5537C77.3248 33.0381 79.8374 37.1786 81.1702 38.5086C79.7565 38.5843 78.5418 36.4189 73.9786 35.9722C72.728 35.8443 71.4732 36.1574 70.4335 36.8568C68.4116 38.3212 67.4412 41.2214 65.3021 42.6465L65.4658 41.8905C66.2768 41.3719 66.641 39.3679 67.1167 38.4295C67.7758 37.1282 68.4448 35.4263 69.8514 34.7382Z" fill="#7AA43E"/>
<path d="M66.82 41.2187C66.3837 41.7605 65.8733 42.2388 65.3035 42.6399L65.4673 41.8839C66.2783 41.3652 66.6424 39.3613 67.1181 38.4229C67.7758 37.1282 68.4648 35.4307 69.8514 34.7382C71.1665 34.1401 72.5646 33.7408 73.9993 33.5537C77.3248 33.0381 79.8374 37.1786 81.1702 38.5086C79.9453 38.5836 78.8464 36.9154 75.5068 36.206C73.7686 34.0383 70.0559 34.7616 68.9535 35.8836C67.7243 37.2376 67.0528 39.0027 67.0721 40.829C66.9952 40.9581 66.9102 41.0925 66.82 41.2187Z" fill="#5F8E29"/>
<path d="M67.0801 33.6937C67.5356 35.5905 68.3998 37.2773 67.8994 39.2656C67.5956 40.4426 66.2435 43.0726 65.1936 43.6298L64.853 42.7507C62.9939 42.4313 65.0499 39.6482 65.5933 38.6551C66.5422 36.9513 66.6212 35.4897 67.0801 33.6937Z" fill="#5F8E29"/>
<path d="M67.0801 33.6937C67.5356 35.5905 68.3998 37.2773 67.8994 39.2656C67.6091 40.2033 67.1967 41.0989 66.6726 41.9298C67.9325 39.5644 67.7017 36.9525 66.9451 34.2199C66.9958 34.0503 67.0332 33.8779 67.0801 33.6937Z" fill="#9FCC51"/>
<path d="M65.9688 42.9228C65.7531 43.2008 65.491 43.4399 65.1939 43.6298L64.8533 42.7507C62.9942 42.4313 65.0502 39.6482 65.5936 38.6551C66.2501 37.3325 66.6917 35.9144 66.9018 34.4534C67.376 36.8125 65.3457 38.6708 65.1953 40.978C65.1609 41.3394 65.213 41.7041 65.3474 42.0421C65.4819 42.3802 65.6948 42.682 65.9688 42.9228Z" fill="#52731A"/>
<path d="M67.6111 42.9522C68.299 44.6147 65.1061 45.1312 63.65 44.1771C62.0786 43.1425 63.1476 41.4648 64.2521 41.1069C64.4571 41.7909 64.9244 42.368 65.553 42.7132C66.1815 43.0585 66.9208 43.1444 67.6111 42.9522Z" fill="#61873D"/>
<path d="M67.6905 43.1985C67.9705 44.6477 65.0332 45.0807 63.6471 44.1904C63.444 44.0825 63.2685 43.9297 63.134 43.7438C62.9995 43.5579 62.9097 43.3438 62.8715 43.1182C62.8333 42.8925 62.8477 42.6613 62.9136 42.4424C62.9795 42.2234 63.0951 42.0226 63.2516 41.8553C63.7575 42.5136 64.4583 42.9974 65.2549 43.2385C66.0516 43.4795 66.9036 43.4656 67.6905 43.1985Z" fill="#567C35"/>
<path d="M79.5243 34.4935C80.15 34.5335 80.7733 34.6059 81.3916 34.7104C83.4515 35.4898 83.2633 40.5519 82.611 42.306C81.8004 40.242 80.016 39.5779 78.4313 37.8947C77.5402 36.945 77.0069 36.1491 76.3397 35.3589C75.6261 34.5462 74.7043 33.941 73.6728 33.608C75.0369 33.2027 76.5008 33.2747 77.8205 33.812C78.3781 34.0439 78.948 34.3478 79.5243 34.4935Z" fill="#82B34F"/>
<path d="M80.0374 34.5768C80.5142 35.6863 81.0517 36.7692 81.6474 37.8206C81.851 38.2478 82.0314 38.6854 82.1878 39.1318C81.8279 38.4706 81.4799 38.0134 81.1938 37.5279C80.2371 35.7517 79.4877 34.5341 77.2062 33.7137L77.7753 33.8925C78.3348 34.0831 78.9115 34.3884 79.4877 34.5341C79.6693 34.5651 79.8533 34.5794 80.0374 34.5768Z" fill="#789F43"/>
<path d="M82.6112 42.306C81.8006 40.242 80.0162 39.5779 78.4315 37.8947C77.5404 36.945 77.0071 36.1491 76.3399 35.3589C75.6263 34.5462 74.7045 33.941 73.673 33.608L74.0264 33.5248L74.8733 33.8402C76.5266 34.4968 77.4706 36.0412 78.7144 37.2339C79.0756 37.779 79.5057 38.2759 79.9941 38.7122C80.5429 39.1782 81.6471 40.7573 82.2094 40.5805C82.7716 40.4038 82.9037 38.3426 82.9767 37.6502C83.1816 39.2114 83.057 40.797 82.6112 42.306Z" fill="#A5D46E"/>
<path d="M62.9465 28.5217C63.8812 27.6897 64.4079 27.29 65.7342 27.3273C66.4851 27.3442 68.1431 27.5921 68.2326 28.2433C68.6554 28.9042 68.6095 29.5677 68.8597 30.219C68.963 30.583 69.1018 30.9363 69.274 31.2737C69.3563 31.4096 70.0051 31.9945 70.0265 32.0893C70.3996 33.9475 67.3546 32.7812 66.4576 32.9549C65.5607 33.1286 65.1681 33.3282 64.172 32.9597C63.3702 32.5867 62.5403 32.2769 61.6899 32.0333C60.462 31.7674 58.0362 31.742 57.7479 30.041C59.8179 31.2253 61.4296 29.8803 62.9465 28.5217Z" fill="#82B34F"/>
<path d="M68.7461 30.229L68.9186 30.3357C69.0092 30.659 69.1334 30.9721 69.2891 31.27C69.3482 31.3455 69.412 31.4173 69.4801 31.4849C69.3634 31.4366 69.2443 31.3946 69.1231 31.359C67.4641 30.1804 65.6782 30.0713 63.5192 30.298L62.8474 30.3677C64.8136 29.773 67.1585 29.1075 68.7461 30.229Z" fill="#789F43"/>
<path d="M64.239 32.4257C65.6996 32.617 68.6815 33.4295 70.0318 32.2917C70.1453 33.8645 67.2971 32.7895 66.4364 32.9571C65.4536 33.14 65.1469 33.3305 64.1508 32.962C63.349 32.589 62.519 32.2792 61.6687 32.0356C60.4407 31.7697 58.015 31.7442 57.7266 30.0432C57.8802 30.1275 58.0392 30.2014 58.2027 30.2644C58.7463 31.0041 59.5569 31.5057 60.4637 31.6636C61.7431 31.8851 63.0029 32.2621 64.239 32.4257Z" fill="#9FCC51"/>
</g>
<defs>
<clipPath id="clip0_318_1456">
<rect width="75" height="136" fill="white" transform="matrix(-0.977341 -0.21167 -0.21167 0.977341 103 15.8752)"/>
</clipPath>
</defs>
</svg>
